<svg width="193" height="111" viewBox="0 0 193 111" fill="none" xmlns="http://www.w3.org/2000/svg">
<path d="M75.1395 95.2194L78.1725 87.184H79.338L82.3676 95.2194H81.4475L80.7284 93.2934H76.7923L76.0733 95.2194H75.1395ZM77.0854 92.4874H80.4251L78.7518 88.007L77.0854 92.4874Z" fill="#2A3952"/>
<path d="M82.7561 95.4893H81.2635L80.5444 93.5701H76.9764L76.2574 95.4962H74.7511L77.9851 86.9246H79.5221L82.7561 95.4893ZM81.6349 94.9361H81.9757L79.1472 87.4232H78.8269L80.8136 92.7403H76.6902L78.6769 87.4232H78.3361L75.5076 94.9361H75.8655L76.5845 93.0101H80.8954L81.6349 94.9361ZM77.474 92.2042H80.0503L78.7587 88.7892L77.474 92.2042Z" fill="#2A3952"/>
<path d="M85.2336 95.2774C84.5427 95.2631 83.8597 95.1267 83.2161 94.8745V94.0925C83.8646 94.3645 84.558 94.5128 85.2608 94.5296C86.1571 94.5296 86.6648 94.1881 86.6648 93.6792C86.6648 92.3918 83.1514 93.0304 83.1514 90.9848C83.1514 89.9603 84.1737 89.3764 85.3562 89.3764C86.0058 89.348 86.6525 89.478 87.2408 89.7554V90.5477C86.7084 90.2479 86.1066 90.0936 85.496 90.1004C84.8485 90.1004 84.0442 90.3121 84.0442 90.9883C84.0442 92.2654 87.5236 91.6132 87.5236 93.6246C87.51 94.7345 86.6342 95.2774 85.2336 95.2774Z" fill="#2A3952"/>
<path d="M85.2303 95.5575C84.5093 95.5438 83.7963 95.4028 83.1242 95.1409L82.947 95.076V93.7101L83.3219 93.8706C83.9318 94.1257 84.5832 94.2669 85.2439 94.2872C85.5097 94.2872 86.3787 94.2462 86.3787 93.7032C86.3787 93.3617 85.9016 93.2046 85.1178 92.9827C84.1125 92.7026 82.8618 92.3509 82.8618 91.0088C82.8618 89.9058 83.8842 89.134 85.3359 89.134C86.0307 89.1026 86.7224 89.2433 87.35 89.5438L87.4897 89.6189V91.043L87.0841 90.8005C86.5933 90.5244 86.0385 90.383 85.4756 90.3907C85.353 90.3907 84.2931 90.4078 84.2931 91.0088C84.2931 91.3503 84.7634 91.5006 85.5438 91.7123C86.5389 91.9855 87.7725 92.3236 87.7725 93.6452C87.7759 94.8575 86.849 95.5575 85.2303 95.5575ZM83.4923 94.7004C84.053 94.905 84.6438 95.0146 85.2405 95.0248C86.1572 95.0248 87.2477 94.7824 87.2477 93.6383C87.2477 92.788 86.5218 92.5285 85.4109 92.2245C84.6032 92.0026 83.7683 91.7738 83.7683 91.0054C83.7683 90.3053 84.4499 89.8511 85.4722 89.8511C85.978 89.8499 86.4792 89.9473 86.9478 90.138V89.9468C86.433 89.7437 85.8821 89.6484 85.3291 89.6667C84.3647 89.6667 83.39 90.0799 83.39 91.0054C83.39 91.8762 84.1261 92.1494 85.2541 92.4636C86.0652 92.6924 86.9035 92.928 86.9035 93.6998C86.9035 94.2394 86.4639 94.8199 85.2337 94.8199C84.6335 94.8065 84.0391 94.6993 83.4718 94.5023L83.4923 94.7004Z" fill="#2A3952"/>
<path d="M91.3882 89.3935C92.9797 89.3935 94.1963 90.6092 94.2542 92.3474V92.7846H89.4526C89.5015 93.2762 89.7342 93.7312 90.104 94.058C90.4737 94.3849 90.9532 94.5595 91.4462 94.5467C91.8077 94.5382 92.1615 94.4403 92.4761 94.2615C92.7906 94.0827 93.0561 93.8288 93.2489 93.5222L93.9305 93.8637C93.6077 94.4269 93.107 94.8666 92.5074 95.1133C91.9078 95.3601 91.2433 95.4 90.6186 95.2266C89.9939 95.0533 89.4445 94.6767 89.057 94.156C88.6694 93.6354 88.4657 93.0003 88.4779 92.3509C88.4743 91.9649 88.5469 91.5821 88.6913 91.2243C88.8358 90.8666 89.0494 90.541 89.3198 90.2662C89.5903 89.9914 89.9122 89.7728 90.2672 89.6231C90.6221 89.4733 91.0031 89.3953 91.3882 89.3935ZM93.3478 92.0538C93.3346 91.5493 93.1271 91.0695 92.7689 90.715C92.4106 90.3604 91.9292 90.1585 91.4257 90.1516C90.9142 90.1503 90.4221 90.3478 90.0529 90.7025C89.6837 91.0572 89.466 91.5416 89.4458 92.0538H93.3478Z" fill="#2A3952"/>
<path d="M91.4359 95.5575C91.0124 95.5655 90.5916 95.4874 90.199 95.3279C89.8064 95.1684 89.4502 94.9309 89.1517 94.6296C88.8533 94.3283 88.6189 93.9695 88.4627 93.5749C88.3065 93.1804 88.2317 92.7581 88.2428 92.3338C88.2364 91.4905 88.5639 90.6791 89.1535 90.0774C89.7431 89.4757 90.5467 89.1327 91.3882 89.1237C93.1399 89.1237 94.4553 90.4897 94.5234 92.3372V93.0509H89.7661C89.8766 93.4093 90.1 93.7222 90.4029 93.9426C90.7058 94.163 91.0719 94.2791 91.4462 94.2735C91.764 94.2628 92.0743 94.1737 92.3496 94.0141C92.6248 93.8544 92.8565 93.6292 93.024 93.3583L93.1535 93.1534L94.3258 93.7305L94.1758 93.9798C93.8997 94.4626 93.5005 94.8631 93.019 95.1403C92.5376 95.4176 91.9912 95.5615 91.4359 95.5575ZM91.3882 89.6599C90.6889 89.6689 90.0218 89.9554 89.533 90.4567C89.0443 90.958 88.7739 91.633 88.7812 92.3338C88.7764 92.8932 88.9479 93.4398 89.2713 93.8958C89.5947 94.3517 90.0534 94.6938 90.5822 94.8732C91.1109 95.0526 91.6827 95.0602 92.216 94.8948C92.7493 94.7295 93.2169 94.3997 93.5522 93.9525L93.3341 93.8466C93.1126 94.1408 92.8272 94.3807 92.4995 94.5481C92.1718 94.7155 91.8105 94.8061 91.4427 94.8131C90.8812 94.8275 90.3353 94.6273 89.9157 94.2531C89.496 93.8789 89.2342 93.3588 89.1834 92.7982V92.5148H93.9986V92.344C93.9339 90.7936 92.84 89.6633 91.3882 89.6633V89.6599ZM93.6306 92.3201H89.1595V92.0367C89.1825 91.4554 89.4298 90.9057 89.8495 90.5037C90.2691 90.1017 90.8281 89.8787 91.4087 89.8818C91.9812 89.8869 92.5295 90.1143 92.9382 90.5162C93.3468 90.9181 93.5841 91.4631 93.5999 92.0367L93.6306 92.3201ZM89.749 91.784H93.0342C92.9652 91.4031 92.7658 91.0583 92.4703 90.8089C92.1748 90.5595 91.8018 90.4213 91.4155 90.418C91.0227 90.4179 90.6419 90.5538 90.3376 90.8027C90.0333 91.0517 89.8242 91.3983 89.7456 91.784H89.749Z" fill="#2A3952"/>
<path d="M97.3519 95.2775C96.661 95.2634 95.978 95.1269 95.3345 94.8746V94.0925C95.9776 94.3627 96.6651 94.5109 97.3621 94.5296C98.2584 94.5296 98.7662 94.1881 98.7662 93.6793C98.7662 92.3919 95.2527 93.0305 95.2527 90.9849C95.2527 89.9604 96.275 89.3765 97.4576 89.3765C98.1082 89.3477 98.7561 89.4778 99.3455 89.7555V90.5478C98.8131 90.248 98.2114 90.0937 97.6007 90.1004C96.9532 90.1004 96.149 90.3122 96.149 90.9883C96.149 92.2655 99.6284 91.6133 99.6284 93.6247C99.6284 94.7345 98.756 95.2775 97.3519 95.2775Z" fill="#2A3952"/>
<path d="M97.352 95.5575C96.6309 95.5444 95.9179 95.4033 95.2459 95.1409L95.0687 95.076V93.71L95.4436 93.8739C96.0534 94.1295 96.7049 94.2707 97.3656 94.2905C97.6314 94.2905 98.5004 94.2496 98.5004 93.7066C98.5004 93.3651 98.0233 93.208 97.2395 92.986C96.2342 92.706 94.9835 92.3543 94.9835 91.0122C94.9835 89.9091 96.0059 89.1374 97.4542 89.1374C98.1489 89.1065 98.8405 89.2472 99.4682 89.5472L99.6114 89.6223V91.0463L99.2058 90.8073C98.7152 90.5303 98.1604 90.3877 97.5973 90.3941C97.4747 90.3941 96.4148 90.4111 96.4148 91.0122C96.4148 91.3537 96.8851 91.5039 97.6621 91.7157C98.6572 91.9889 99.8908 92.3269 99.8908 93.6485C99.8976 94.8574 98.9707 95.5575 97.352 95.5575ZM95.6037 94.6969C96.1645 94.9015 96.7553 95.0111 97.352 95.0213C98.2687 95.0213 99.3592 94.7789 99.3592 93.6349C99.3592 92.7845 98.6333 92.525 97.5258 92.2211C96.7181 91.9991 95.8832 91.7703 95.8832 91.0019C95.8832 90.3019 96.5648 89.8477 97.5871 89.8477C98.0929 89.8463 98.5941 89.9437 99.0627 90.1345V89.9433C98.5478 89.7405 97.9969 89.6453 97.444 89.6633C96.4796 89.6633 95.5083 90.0765 95.5083 91.0019C95.5083 91.8727 96.2478 92.1459 97.3724 92.4601C98.1835 92.6889 99.0218 92.9245 99.0218 93.6963C99.0218 94.2359 98.5822 94.8164 97.3486 94.8164C96.7495 94.8031 96.1562 94.6959 95.5901 94.4988L95.6037 94.6969Z" fill="#2A3952"/>
<path d="M103.568 89.3935C104.155 89.3881 104.731 89.5578 105.223 89.8811C105.714 90.2044 106.098 90.6667 106.327 91.2093C106.555 91.7519 106.618 92.3503 106.506 92.9285C106.394 93.5067 106.114 94.0386 105.7 94.4567C105.286 94.8748 104.758 95.1602 104.181 95.2767C103.605 95.3932 103.008 95.3355 102.464 95.1109C101.921 94.8863 101.457 94.5051 101.13 94.0154C100.804 93.5258 100.63 92.95 100.63 92.3611C100.628 91.9726 100.701 91.5875 100.848 91.2278C100.994 90.8681 101.21 90.5409 101.483 90.2651C101.756 89.9893 102.081 89.7703 102.439 89.6208C102.796 89.4712 103.18 89.3939 103.568 89.3935ZM103.568 94.5569C104.747 94.5569 105.572 93.4949 105.572 92.3611C105.572 91.2273 104.747 90.1858 103.568 90.1858C103.01 90.217 102.486 90.4609 102.103 90.8673C101.719 91.2738 101.505 91.8119 101.505 92.3713C101.505 92.9307 101.719 93.4689 102.103 93.8754C102.486 94.2818 103.01 94.5257 103.568 94.5569Z" fill="#2A3952"/>
<path d="M103.568 95.619C102.926 95.6319 102.295 95.453 101.755 95.1051C101.214 94.7573 100.79 94.2561 100.535 93.6656C100.28 93.0751 100.206 92.4219 100.323 91.7892C100.44 91.1565 100.742 90.573 101.191 90.113C101.64 89.653 102.215 89.3373 102.844 89.2061C103.472 89.075 104.126 89.1343 104.721 89.3765C105.315 89.6187 105.825 90.0328 106.184 90.5662C106.543 91.0996 106.736 91.728 106.737 92.3714C106.741 93.2215 106.41 94.0389 105.817 94.6467C105.224 95.2545 104.416 95.6038 103.568 95.619ZM103.568 89.6736C103.031 89.6607 102.503 89.8084 102.05 90.098C101.598 90.3875 101.242 90.8057 101.028 91.299C100.814 91.7923 100.751 92.3385 100.849 92.8675C100.946 93.3965 101.199 93.8845 101.574 94.269C101.949 94.6535 102.431 94.9171 102.956 95.026C103.482 95.135 104.028 95.0844 104.525 94.8807C105.022 94.6769 105.447 94.3294 105.746 93.8824C106.044 93.4354 106.203 92.9093 106.202 92.3714C106.208 91.6633 105.934 90.9816 105.441 90.4745C104.947 89.9674 104.274 89.6759 103.568 89.6633V89.6736ZM103.568 94.837C102.946 94.7967 102.362 94.5207 101.936 94.0649C101.51 93.6092 101.272 93.008 101.272 92.3833C101.272 91.7587 101.51 91.1575 101.936 90.7017C102.362 90.246 102.946 89.97 103.568 89.9297C104.182 89.9811 104.754 90.2618 105.172 90.7163C105.589 91.1708 105.82 91.7658 105.82 92.3833C105.82 93.0009 105.589 93.5959 105.172 94.0504C104.754 94.5048 104.182 94.7856 103.568 94.837ZM103.568 90.4658C103.085 90.5013 102.632 90.7187 102.303 91.0744C101.973 91.4301 101.789 91.8977 101.789 92.3833C101.789 92.869 101.973 93.3366 102.303 93.6923C102.632 94.048 103.085 94.2654 103.568 94.3009C104.641 94.3009 105.306 93.3003 105.306 92.3714C105.306 91.4425 104.652 90.4556 103.578 90.4556L103.568 90.4658Z" fill="#2A3952"/>
<path d="M108.789 89.472V90.5477C109.006 90.2075 109.304 89.9267 109.656 89.7306C110.008 89.5345 110.403 89.4292 110.806 89.4242C111.017 89.4233 111.227 89.4509 111.43 89.5062V90.3463C111.24 90.2983 111.046 90.2742 110.85 90.2745C110.397 90.273 109.955 90.4133 109.585 90.676C109.216 90.9387 108.937 91.3105 108.789 91.7396V95.2262H107.93V89.472H108.789Z" fill="#2A3952"/>
<path d="M109.051 95.4892H107.654V89.1954H109.051V89.8135C109.377 89.5183 109.771 89.3098 110.198 89.2072C110.625 89.1046 111.071 89.1111 111.494 89.2261L111.692 89.2808V90.6672L111.351 90.5853C111.184 90.5438 111.012 90.5231 110.84 90.5238C110.449 90.5221 110.067 90.6412 109.745 90.8648C109.424 91.0885 109.179 91.4058 109.044 91.7737L109.051 95.4892ZM108.196 94.936H108.536V91.6678L108.553 91.62C108.72 91.1392 109.033 90.7228 109.448 90.4294C109.863 90.136 110.359 89.9803 110.867 89.9843C110.971 89.9839 111.075 89.9895 111.178 90.0013V89.6974C111.065 89.6794 110.951 89.6702 110.837 89.6701C110.478 89.6738 110.125 89.7676 109.811 89.943C109.498 90.1184 109.233 90.3697 109.041 90.6741L108.55 91.3912V89.7145H108.209L108.196 94.936Z" fill="#2A3952"/>
<path d="M113.021 87.184H114.214L112.905 88.7447H112.091L113.021 87.184ZM112.704 89.4652H113.577V95.2194H112.704V89.4652Z" fill="#2A3952"/>
<path d="M113.846 95.4892H112.438V89.1954H113.846V95.4892ZM112.974 94.936H113.314V89.735H112.974V94.936ZM113.031 88.9974H111.621L112.871 86.9006H114.79L113.031 88.9974ZM112.565 88.4612H112.779L113.638 87.4367H113.175L112.565 88.4612Z" fill="#2A3952"/>
<path d="M117.196 91.9104H118.845V91.6269C118.845 90.6468 118.279 90.138 117.336 90.138C116.699 90.1483 116.089 90.401 115.632 90.8449L115.219 90.278C115.509 89.9902 115.853 89.7644 116.232 89.6141C116.611 89.4638 117.017 89.3923 117.424 89.4038C118.733 89.4038 119.701 90.1141 119.701 91.4938V95.2263H118.838V94.5433C118.595 94.8092 118.295 95.0164 117.96 95.1495C117.626 95.2826 117.265 95.338 116.906 95.3117C115.833 95.3117 114.936 94.8267 114.936 93.6554C114.936 92.4841 115.945 91.9104 117.196 91.9104ZM115.833 93.5632C115.833 94.3316 116.446 94.5877 117.155 94.5877C117.513 94.6149 117.871 94.5278 118.177 94.3389C118.483 94.15 118.722 93.8689 118.859 93.5359V92.59H117.325C116.514 92.607 115.829 92.7607 115.829 93.57L115.833 93.5632Z" fill="#2A3952"/>
<path d="M116.913 95.5575C115.55 95.5575 114.677 94.8199 114.677 93.6349C114.677 92.3884 115.618 91.644 117.196 91.6405L118.579 91.6132C118.579 90.8039 118.16 90.3941 117.339 90.3941C116.773 90.4051 116.232 90.6309 115.826 91.0258L115.604 91.241L114.879 90.2404L115.035 90.0765C115.349 89.7655 115.722 89.5206 116.131 89.3564C116.541 89.1921 116.98 89.1119 117.421 89.1203C118.965 89.1203 119.963 90.0457 119.963 91.48V95.4824H118.593V95.1033C118.092 95.4227 117.506 95.5811 116.913 95.5575ZM117.196 92.1767C116.456 92.1767 115.213 92.3645 115.213 93.6315C115.213 94.8369 116.279 95.0179 116.916 95.0179C117.238 95.041 117.561 94.9917 117.861 94.8735C118.161 94.7553 118.431 94.5713 118.651 94.3349L119.118 93.8124V94.936H119.459V91.4869C119.459 90.3463 118.709 89.6633 117.451 89.6633C116.778 89.6425 116.119 89.8697 115.601 90.3019L115.703 90.4419C116.176 90.0727 116.756 89.8677 117.356 89.8579C118.47 89.8579 119.135 90.5136 119.135 91.6132V92.163L117.196 92.1767ZM117.148 94.8711C116.153 94.8711 115.56 94.3828 115.56 93.5632C115.56 92.3372 116.879 92.3372 117.315 92.3372H119.115V93.6144L119.087 93.669C118.926 94.045 118.654 94.3623 118.307 94.5779C117.96 94.7935 117.556 94.8971 117.148 94.8745V94.8711ZM117.315 92.8733C116.293 92.8733 116.095 93.1499 116.095 93.5563C116.095 94.0686 116.436 94.3281 117.148 94.3281C117.445 94.3508 117.741 94.2817 117.997 94.1302C118.253 93.9788 118.456 93.7522 118.579 93.4812V92.887L117.315 92.8733Z" fill="#2A3952"/>
<path d="M4.08936 105.816C4.08936 103.149 5.81713 100.97 8.65928 100.97C9.49057 100.94 10.3132 101.149 11.0296 101.572C11.746 101.996 12.326 102.617 12.701 103.361L11.7536 103.962C11.4729 103.375 11.0347 102.879 10.4881 102.529C9.94145 102.178 9.30814 101.987 8.65928 101.978C6.57027 101.978 5.25143 103.685 5.25143 105.816C5.25143 107.947 6.56004 109.655 8.65928 109.655C9.2951 109.658 9.91929 109.484 10.4613 109.151C11.0033 108.818 11.4415 108.339 11.7263 107.769L12.6874 108.384C11.9479 109.75 10.612 110.662 8.65928 110.662C5.85462 110.662 4.08936 108.47 4.08936 105.816Z" fill="#27334E"/>
<path d="M8.66959 110.932C5.86493 110.932 3.83044 108.781 3.83044 105.81C3.83044 102.839 5.82063 100.687 8.66959 100.687C9.55197 100.654 10.4251 100.877 11.1843 101.329C11.9435 101.781 12.5565 102.443 12.9498 103.235L13.0691 103.457L11.6685 104.345L11.5322 104.089C11.2742 103.546 10.8702 103.086 10.3657 102.761C9.86121 102.436 9.27617 102.258 8.6764 102.248C6.83276 102.248 5.54459 103.716 5.54459 105.82C5.54459 107.924 6.83276 109.392 8.6764 109.392C9.26337 109.396 9.83978 109.236 10.3399 108.928C10.84 108.62 11.2437 108.177 11.5049 107.65L11.6412 107.394L13.0555 108.299L12.9396 108.518C12.0979 110.072 10.5848 110.932 8.66959 110.932ZM8.66959 101.244C6.13756 101.244 4.36548 103.125 4.36548 105.82C4.36548 108.514 6.17504 110.396 8.66959 110.396C10.3122 110.396 11.5731 109.733 12.3364 108.477L11.8253 108.135C11.4962 108.679 11.0323 109.128 10.4788 109.44C9.92527 109.751 9.30085 109.913 8.66618 109.911C6.53968 109.911 4.99934 108.183 4.99934 105.813C4.99934 103.443 6.54309 101.715 8.66618 101.715C9.31472 101.72 9.95053 101.896 10.5098 102.225C11.0691 102.554 11.5321 103.025 11.8525 103.59L12.3467 103.276C11.977 102.633 11.4391 102.104 10.791 101.745C10.143 101.386 9.4094 101.212 8.66959 101.24V101.244Z" fill="#27334E"/>
<path d="M13.8802 105.847C13.8802 103.115 15.8875 100.974 18.5763 100.974C21.2651 100.974 23.245 103.125 23.245 105.847C23.245 108.569 21.2378 110.734 18.5763 110.734C15.9147 110.734 13.8802 108.596 13.8802 105.847ZM22.0591 105.847C22.0591 103.682 20.5664 101.978 18.5626 101.978C16.5588 101.978 15.0389 103.685 15.0389 105.847C15.0389 108.009 16.5179 109.726 18.5626 109.726C20.6073 109.726 22.0727 107.995 22.0727 105.847H22.0591Z" fill="#27334E"/>
<path d="M18.5762 110.986C15.7477 110.986 13.611 108.77 13.611 105.83C13.611 102.948 15.792 100.687 18.5762 100.687C21.3604 100.687 23.5142 102.961 23.5142 105.847C23.5142 108.732 21.3434 110.986 18.5762 110.986ZM18.5762 101.226C16.051 101.226 14.146 103.207 14.146 105.83C14.146 108.452 16.051 110.447 18.5762 110.447C21.1014 110.447 22.9757 108.463 22.9757 105.83C22.9757 103.197 21.0435 101.24 18.5762 101.24V101.226ZM18.5762 109.979C16.4122 109.979 14.7833 108.196 14.7833 105.83C14.7833 103.463 16.4156 101.694 18.5762 101.694C20.7368 101.694 22.3248 103.473 22.3248 105.83C22.3248 108.186 20.6856 109.996 18.5762 109.996V109.979ZM18.5762 102.23C16.7189 102.23 15.3183 103.777 15.3183 105.83C15.3183 107.882 16.7189 109.443 18.5762 109.443C20.4335 109.443 21.8102 107.872 21.8102 105.847C21.8102 103.822 20.4164 102.247 18.5762 102.247V102.23Z" fill="#27334E"/>
<path d="M26.5335 101.083L31.7168 109.279V101.083H32.8176V110.577H31.284L26.1723 102.435V110.577H25.0681V101.083H26.5335Z" fill="#27334E"/>
<path d="M33.0834 110.833H31.1341L26.4245 103.354V110.836H24.799V100.803H26.6767L31.4477 108.367V100.803H33.0834V110.833ZM31.4306 110.303H32.5484V101.339H31.9827V110.218L26.3836 101.339H25.3374V110.303H25.8997V101.496L31.4306 110.303Z" fill="#27334E"/>
<path d="M42.9389 101.083V102.046H39.2414V110.583H38.127V102.046H34.4193V101.083H42.9389Z" fill="#27334E"/>
<path d="M39.5072 110.833H37.8578V102.295H34.1637V100.796H43.2013V102.295H39.5072V110.833ZM38.3928 110.303H38.9722V101.766H42.6629V101.339H34.6987V101.766H38.3928V110.303Z" fill="#27334E"/>
<path d="M42.5402 110.566L46.1218 101.083H47.4849L51.0666 110.577H49.9795L49.1309 108.299H44.4929L43.6443 110.577L42.5402 110.566ZM44.8405 107.353H48.797L46.817 102.06L44.8405 107.353Z" fill="#27334E"/>
<path d="M51.4586 110.833H49.799L48.9504 108.555H44.6804L43.8318 110.833H42.1552L45.9379 100.8H47.6861L51.4586 110.833ZM50.184 110.303H50.6986L47.3215 101.346H46.8409L49.189 107.629H44.4554L46.8035 101.346H46.3093L42.939 110.303H43.4672L44.3157 108.026H49.3423L50.184 110.303ZM45.229 107.093H48.412L46.8205 102.835L45.229 107.093Z" fill="#27334E"/>
<path d="M52.5729 101.083H56.0591C58.0254 101.083 59.1534 101.892 59.1534 103.473C59.1534 104.631 58.54 105.318 57.5381 105.652C59.0273 105.932 59.7123 106.769 59.7123 108.043C59.7123 109.665 58.598 110.57 56.3692 110.57H52.5729V101.083ZM55.8206 105.328C56.894 105.328 58.0357 104.921 58.0357 103.692C58.0357 102.534 57.0746 102.06 55.916 102.06H53.66V105.328H55.8206ZM56.2942 109.6C57.8414 109.6 58.5809 108.972 58.5809 107.855C58.5809 106.738 57.8278 106.164 56.3249 106.164H53.6634V109.586L56.2942 109.6Z" fill="#27334E"/>
<path d="M56.3657 110.833H52.307V100.803H56.0556C58.223 100.803 59.4158 101.746 59.4158 103.46C59.4365 103.88 59.3443 104.297 59.1489 104.669C58.9535 105.041 58.662 105.353 58.3048 105.574C58.8157 105.742 59.2565 106.076 59.5586 106.522C59.8606 106.968 60.0069 107.501 59.9747 108.039C59.9781 109.081 59.5078 110.833 56.3657 110.833ZM52.842 110.303H56.3657C58.4104 110.303 59.4328 109.542 59.4328 108.043C59.4328 106.851 58.7921 106.151 57.4767 105.905L56.4543 105.714L57.4358 105.372C58.4002 105.048 58.8705 104.419 58.8705 103.45C58.8705 101.698 57.3336 101.329 56.0454 101.329H52.8284L52.842 110.303ZM56.2942 109.863H53.3941V105.884H56.3248C58.5229 105.884 58.8501 107.11 58.8501 107.841C58.8501 108.572 58.5161 109.856 56.2942 109.856V109.863ZM53.9291 109.327H56.2942C57.6573 109.327 58.3116 108.842 58.3116 107.848C58.3116 107.507 58.3116 106.427 56.3214 106.427H53.936L53.9291 109.327ZM55.8205 105.591H53.3941V101.766H55.9193C57.412 101.766 58.3048 102.476 58.3048 103.668C58.3048 104.86 57.354 105.584 55.8205 105.584V105.591ZM53.9291 105.055H55.8205C56.4066 105.055 57.7664 104.921 57.7664 103.689C57.7664 102.456 56.6077 102.323 55.9159 102.323H53.9257L53.9291 105.055Z" fill="#27334E"/>
<path d="M61.5627 101.083H62.6635V109.62H67.2743V110.583H61.5627V101.083Z" fill="#27334E"/>
<path d="M67.5436 110.833H61.2936V100.803H62.9293V109.34H67.5436V110.833ZM61.8286 110.303H67.0051V109.877H62.3943V101.339H61.8286V110.303Z" fill="#27334E"/>
<path d="M75.4668 101.083V102.046H70.0892V105.413H74.6318V106.39H70.0892V109.614H75.4668V110.577H68.9918V101.083H75.4668Z" fill="#27334E"/>
<path d="M75.736 110.833H68.7329V100.803H75.736V102.302H70.3585V105.13H74.9011V106.643H70.3585V109.33H75.736V110.833ZM69.2611 110.297H75.1908V109.87H69.82V106.113H74.3627V105.673H69.82V101.766H75.1976V101.339H69.2679L69.2611 110.297Z" fill="#27334E"/>
<path d="M87.3261 101.083V102.046H82.0439V105.44H86.4741V106.417H82.0439V110.577H80.9568V101.083H87.3261Z" fill="#27334E"/>
<path d="M82.3132 110.833H80.691V100.803H87.5817V102.302H82.2995V105.157H86.7297V106.67H82.2995L82.3132 110.833ZM81.2261 110.303H81.7884V106.137H86.2186V105.697H81.7884V101.766H87.0705V101.339H81.2261V110.303Z" fill="#27334E"/>
<path d="M88.8324 101.083H89.9331V110.577H88.8324V101.083Z" fill="#27334E"/>
<path d="M90.1989 110.833H88.5631V100.803H90.1989V110.833ZM89.0981 110.303H89.6638V101.339H89.0981V110.303Z" fill="#27334E"/>
<path d="M93.7635 101.083L98.9468 109.279V101.083H100.048V110.577H98.514L93.4023 102.435V110.577H92.3152V101.083H93.7635Z" fill="#27334E"/>
<path d="M100.317 110.833H98.3675L93.6545 103.351V110.833H92.0323V100.803H93.9101L98.6811 108.367V100.803H100.317V110.833ZM98.664 110.303H99.7818V101.339H99.2161V110.218L93.617 101.339H92.5708V110.303H93.1229V101.496L98.664 110.303Z" fill="#27334E"/>
<path d="M101.51 110.566L105.091 101.083H106.454L110.036 110.577H108.949L108.1 108.299H103.462L102.614 110.577L101.51 110.566ZM103.81 107.353H107.766L105.786 102.06L103.81 107.353Z" fill="#27334E"/>
<path d="M110.438 110.833H108.779L107.93 108.555H103.646L102.798 110.833H101.125L104.907 100.8H106.666L110.438 110.833ZM109.15 110.303H109.665L106.287 101.346H105.807L108.155 107.629H103.421L105.769 101.346H105.275L101.895 110.303H102.423L103.271 108.026H108.301L109.15 110.303ZM104.195 107.093H107.378L105.786 102.835L104.195 107.093Z" fill="#27334E"/>
<path d="M113.004 101.083L118.188 109.279V101.083H119.275V110.577H117.741L112.629 102.435V110.577H111.542V101.083H113.004Z" fill="#27334E"/>
<path d="M119.558 110.833H117.608L112.895 103.351V110.833H111.273V100.803H113.141L117.912 108.367V100.803H119.547L119.558 110.833ZM117.912 110.303H119.029V101.339H118.457V110.218L112.858 101.339H111.812V110.303H112.364V101.496L117.912 110.303Z" fill="#27334E"/>
<path d="M121.101 105.816C121.101 103.149 122.829 100.97 125.671 100.97C126.503 100.94 127.325 101.149 128.042 101.572C128.758 101.996 129.338 102.617 129.713 103.361L128.766 103.962C128.485 103.375 128.047 102.879 127.5 102.529C126.953 102.178 126.32 101.987 125.671 101.978C123.582 101.978 122.263 103.685 122.263 105.816C122.263 107.947 123.572 109.655 125.671 109.655C126.307 109.658 126.931 109.484 127.473 109.151C128.015 108.818 128.453 108.339 128.738 107.769L129.699 108.384C128.96 109.75 127.624 110.662 125.671 110.662C122.856 110.662 121.101 108.47 121.101 105.816Z" fill="#27334E"/>
<path d="M125.671 110.932C122.867 110.932 120.832 108.78 120.832 105.809C120.832 102.838 122.822 100.687 125.671 100.687C126.551 100.653 127.422 100.874 128.181 101.322C128.939 101.771 129.552 102.429 129.948 103.217L130.064 103.439L128.663 104.327L128.527 104.071C128.269 103.528 127.865 103.069 127.36 102.743C126.856 102.418 126.271 102.241 125.671 102.23C123.828 102.23 122.539 103.699 122.539 105.802C122.539 107.906 123.828 109.375 125.671 109.375C126.258 109.379 126.834 109.218 127.334 108.91C127.834 108.602 128.238 108.159 128.5 107.633L128.636 107.377L130.05 108.282L129.934 108.5C129.103 110.071 127.59 110.932 125.671 110.932ZM125.671 101.243C123.139 101.243 121.367 103.125 121.367 105.82C121.367 108.514 123.177 110.396 125.671 110.396C127.314 110.396 128.575 109.733 129.338 108.476L128.827 108.135C128.498 108.678 128.034 109.128 127.48 109.439C126.927 109.75 126.302 109.912 125.668 109.911C123.541 109.911 122.001 108.183 122.001 105.813C122.001 103.443 123.545 101.715 125.668 101.715C126.316 101.72 126.952 101.896 127.511 102.225C128.071 102.554 128.534 103.024 128.854 103.59L129.348 103.275C128.979 102.633 128.441 102.103 127.793 101.744C127.145 101.386 126.411 101.211 125.671 101.24V101.243Z" fill="#27334E"/>
<path d="M131.413 101.083H132.514V110.577H131.413V101.083Z" fill="#27334E"/>
<path d="M132.78 110.833H131.144V100.803H132.78V110.833ZM131.679 110.303H132.245V101.339H131.679V110.303Z" fill="#27334E"/>
<path d="M141.347 101.083V102.046H135.973V105.413H140.516V106.39H135.973V109.614H141.351V110.577H134.876V101.083H141.347Z" fill="#27334E"/>
<path d="M141.616 110.833H134.61V100.803H141.613V102.302H136.236V105.13H140.778V106.643H136.236V109.33H141.613L141.616 110.833ZM135.142 110.297H141.085V109.87H135.7V106.113H140.243V105.673H135.7V101.766H141.085V101.339H135.155L135.142 110.297Z" fill="#27334E"/>
<path d="M143.354 101.083H146.878C149.485 101.083 150.473 102.449 150.473 104.126C150.473 105.563 149.761 106.694 147.938 106.987L150.286 110.566H149.059L146.83 107.063H144.445V110.566H143.358L143.354 101.083ZM146.824 106.151C148.606 106.151 149.332 105.341 149.332 104.126C149.332 102.91 148.606 102.077 146.824 102.077H144.438V106.141L146.824 106.151Z" fill="#27334E"/>
<path d="M150.787 110.833H148.923L146.694 107.329H144.714V110.833H143.092V100.803H146.878C149.332 100.803 150.743 102.012 150.743 104.115C150.743 105.714 149.908 106.783 148.378 107.162L150.787 110.833ZM149.213 110.303H149.795L147.498 106.783L147.907 106.718C149.441 106.472 150.218 105.598 150.218 104.119C150.218 102.852 149.642 101.343 146.892 101.343H143.62V110.303H144.172V106.793H146.984L149.213 110.303ZM146.827 106.414H144.176V101.807H146.827C149.121 101.807 149.604 103.06 149.604 104.115C149.604 104.969 149.24 106.407 146.824 106.407L146.827 106.414ZM144.707 105.864H146.824C148.33 105.864 149.063 105.29 149.063 104.109C149.063 102.927 148.33 102.34 146.824 102.34H144.707V105.864Z" fill="#27334E"/>
<path d="M151.489 110.566L155.057 101.083H156.42L160.002 110.577H158.915L158.066 108.299H153.442L152.593 110.577L151.489 110.566ZM153.789 107.353H157.749L155.769 102.06L153.789 107.353Z" fill="#27334E"/>
<path d="M160.421 110.833H158.761L157.913 108.555H153.629L152.781 110.833H151.104L154.887 100.8H156.635L160.421 110.833ZM159.147 110.303H159.661L156.284 101.346H155.803L158.151 107.629H153.404L155.752 101.346H155.258L151.878 110.303H152.406L153.254 108.026H158.281L159.147 110.303ZM154.192 107.093H157.374L155.783 102.835L154.192 107.093Z" fill="#27334E"/>
<path d="M164.599 109.962V108.832C165.627 109.325 166.748 109.596 167.888 109.627C169.38 109.627 170.273 109.112 170.273 108.203C170.273 105.97 164.671 106.68 164.671 103.443C164.671 101.978 165.826 100.957 168.153 100.957C169.188 100.912 170.211 101.19 171.081 101.752V102.777C170.225 102.252 169.242 101.973 168.239 101.967C166.593 101.967 165.812 102.65 165.812 103.491C165.812 105.697 171.442 105 171.442 108.155C171.442 109.204 170.842 110.655 167.905 110.655C166.768 110.64 165.646 110.404 164.599 109.962Z" fill="#27334E"/>
<path d="M167.918 110.932C166.748 110.917 165.591 110.677 164.51 110.225L164.35 110.153V108.411L164.739 108.606C165.73 109.081 166.81 109.343 167.908 109.375C169.24 109.375 170.038 108.944 170.038 108.22C170.038 107.397 169.016 107.032 167.802 106.608C166.303 106.079 164.435 105.42 164.435 103.46C164.435 101.752 165.839 100.707 168.184 100.707C169.997 100.707 171.006 101.356 171.272 101.554L171.381 101.636V103.262L170.975 103.023C170.161 102.521 169.225 102.254 168.269 102.251C166.94 102.251 166.112 102.732 166.112 103.504C166.112 104.276 167.158 104.679 168.371 105.096C169.953 105.639 171.742 106.257 171.742 108.169C171.725 108.995 171.357 110.932 167.918 110.932ZM164.868 109.801C165.841 110.183 166.874 110.384 167.918 110.396C170.764 110.396 171.19 108.999 171.19 108.166C171.19 106.639 169.66 106.117 168.181 105.601C166.818 105.137 165.56 104.699 165.56 103.501C165.56 102.633 166.269 101.711 168.252 101.711C169.147 101.711 170.03 101.925 170.825 102.336V101.909C170.02 101.438 169.099 101.201 168.167 101.226C166.122 101.226 164.95 102.036 164.95 103.443C164.95 105.024 166.48 105.563 167.959 106.086C169.292 106.557 170.553 107.001 170.553 108.207C170.553 109.265 169.557 109.914 167.888 109.914C166.85 109.887 165.826 109.667 164.868 109.265V109.801Z" fill="#27334E"/>
<path d="M173.459 108.89H174.601V110.566H173.459V108.89Z" fill="#27334E"/>
<path d="M174.86 110.833H173.183V108.62H174.86V110.833ZM173.718 110.303H174.325V109.163H173.718V110.303Z" fill="#27334E"/>
<path d="M176.186 110.566L179.764 101.083H181.127L184.709 110.577H183.622L182.773 108.299H178.135L177.286 110.577L176.186 110.566ZM178.486 107.353H182.442L180.463 102.06L178.486 107.353Z" fill="#27334E"/>
<path d="M185.111 110.833H183.451L182.603 108.555H178.319L177.471 110.833H175.797L179.594 100.803H181.342L185.111 110.833ZM183.823 110.303H184.337L180.957 101.339H180.476L182.824 107.623H178.094L180.442 101.339H179.934L176.571 110.303H177.099L177.948 108.026H182.974L183.823 110.303ZM178.868 107.093H182.051L180.459 102.835L178.868 107.093Z" fill="#27334E"/>
<path d="M186.314 108.89H187.455V110.566H186.314V108.89Z" fill="#27334E"/>
<path d="M187.721 110.833H186.045V108.62H187.721V110.833ZM186.58 110.303H187.186V109.163H186.58V110.303Z" fill="#27334E"/>
<path d="M66.5178 92.088H0V92.8939H66.5178V92.088Z" fill="#252B3A"/>
<path d="M193 92.088H126.482V92.8939H193V92.088Z" fill="#252B3A"/>
<path d="M174.792 78.4383C172.838 76.5642 171.29 74.3066 170.246 71.8064C169.032 68.9839 167.975 66.0961 167.08 63.1563C166.161 60.1235 164.87 57.2168 163.236 54.5028C161.61 51.8358 159.406 49.5693 156.788 47.8709C154.101 46.1043 150.379 45.2198 145.624 45.2175L145.508 45.1014C148.504 44.8299 151.446 44.132 154.246 43.0285C156.821 42.025 159.169 40.5156 161.154 38.5891C163.095 36.6704 164.623 34.3739 165.645 31.8411C166.758 29.016 167.306 25.9991 167.257 22.9622C167.296 19.8576 166.708 16.7771 165.529 13.9057C164.426 11.2475 162.779 8.85085 160.694 6.87086C158.58 4.88201 156.096 3.33046 153.384 2.30506C150.497 1.21073 147.433 0.660782 144.346 0.682948L105.582 0.573669L102.365 1.36594L105.667 1.25325C106.136 1.24249 106.603 1.3278 107.038 1.50395C107.474 1.68011 107.869 1.9434 108.199 2.27774C108.533 2.60941 108.796 3.00576 108.971 3.4426C109.147 3.87943 109.232 4.34758 109.221 4.81847V77.3967C109.226 77.8678 109.137 78.3351 108.959 78.7714C108.782 79.2076 108.519 79.604 108.187 79.9375C107.855 80.271 107.46 80.5348 107.025 80.7136C106.59 80.8924 106.124 80.9827 105.653 80.979H101.295V81.662H134.562V80.979H130.18C129.71 80.9831 129.244 80.8934 128.809 80.7152C128.375 80.537 127.98 80.2738 127.648 79.9409C127.315 79.6081 127.053 79.2123 126.875 78.7766C126.697 78.341 126.608 77.8742 126.612 77.4035V45.3336H130.418C133.794 45.3336 136.326 46.2374 138.014 48.0451C139.786 49.9972 141.138 52.2943 141.984 54.7931C142.985 57.6377 143.793 60.5471 144.401 63.5012C145.013 66.4934 145.94 69.4123 147.164 72.2094C148.29 74.8173 150.005 77.1274 152.174 78.9574C154.321 80.765 157.429 81.6688 161.498 81.6688H182.793V81.0917C179.34 81.0917 176.673 80.2072 174.792 78.4383ZM116.323 78.4724H114.476V6.63523H116.323V78.4724ZM121.684 78.4724H119.837V6.63523H121.684V78.4724ZM122.297 4.21744H114.459V2.37336H122.297V4.21744ZM139.797 42.7314C137.916 44.004 136.016 44.6404 134.099 44.6404H126.734V1.49912L134.102 1.36594C136.02 1.36594 137.919 2.00226 139.8 3.27491C141.762 4.63223 143.458 6.3383 144.806 8.30856C146.3 10.4634 147.481 12.8192 148.316 15.3058C149.18 17.7781 149.628 20.377 149.642 22.9963C149.628 25.6168 149.18 28.2168 148.316 30.6902C147.482 33.1769 146.3 35.5327 144.806 37.6875C143.461 39.6627 141.764 41.3725 139.8 42.7314H139.797Z" fill="#23304C"/>
<path d="M25.0851 11.6314C26.8186 8.20274 29.0689 5.51858 31.8361 3.57888C34.6033 1.63918 37.9804 0.673886 41.9676 0.682993C44.8125 0.637799 47.6534 0.915033 50.4361 1.50941C52.7874 2.04651 54.9841 3.11793 56.8565 4.64094C58.7376 6.17084 60.5086 8.29609 62.1693 11.0167C64.1542 14.38 65.911 17.8735 67.4277 21.4733H68.0922V7.27046C65.2864 5.10765 61.6343 3.35577 57.1359 2.01483C52.6376 0.673886 47.5815 0.00227664 41.9676 0C36.2106 0 30.9523 0.950499 26.1927 2.8515C21.6056 4.64153 17.4268 7.3422 13.9074 10.7913C10.414 14.2793 7.69736 18.4692 5.93645 23.0852C4.97965 25.5457 4.26959 28.0956 3.81677 30.6971H11.4674V33.1252H3.46576C3.34535 34.1178 3.25789 35.1275 3.20336 36.1542H18.4024V38.8623H3.11816C3.11816 38.9203 3.11816 38.9784 3.11816 39.0365C3.11816 39.9722 3.15224 40.8874 3.19995 41.7957L7.20076 41.8914H17.2198V44.5994H3.42828C3.54415 45.6239 3.68727 46.6484 3.86789 47.6285H13.3792V50.3366H4.46426C4.85756 51.914 5.34925 53.4652 5.93645 54.9809C7.69616 59.5975 10.4129 63.7877 13.9074 67.2748C17.426 70.7258 21.6049 73.4277 26.1927 75.218C30.9637 77.119 36.222 78.0695 41.9676 78.0695C47.5747 78.0695 52.6296 77.399 57.1325 76.0581C61.6354 74.7171 65.2875 72.9641 68.0888 70.799V56.5928H67.4242V57.0299C65.9085 60.6302 64.1517 64.1236 62.1659 67.4865C60.5052 70.2185 58.7342 72.3437 56.8531 73.8623C54.9832 75.3894 52.7875 76.4645 50.4361 77.004C47.6539 77.603 44.813 77.8848 41.9676 77.8441C37.9827 77.8441 34.6067 76.8743 31.8395 74.9346C29.0723 72.9949 26.8209 70.3107 25.0851 66.8821C23.3562 63.4535 22.084 59.3726 21.2684 54.6394C20.4287 49.5608 20.0217 44.4198 20.0518 39.2721C20.0219 34.1243 20.4289 28.9834 21.2684 23.9048C22.084 19.1534 23.3562 15.0623 25.0851 11.6314Z" fill="#9C6A3D"/>
<path d="M71.0911 31.5132C74.0764 31.5132 76.0427 33.8149 76.0427 37.889C76.0427 41.963 74.0866 44.1759 71.6636 44.5448L73.3675 48.9432L83.2503 31.5269H84.6543L73.906 3.75642C73.7958 3.47644 73.7581 3.17312 73.7962 2.87461C73.8343 2.5761 73.9471 2.29208 74.1241 2.04893C74.286 1.79109 74.5124 1.58013 74.7808 1.43697C75.0492 1.29381 75.3503 1.22341 75.6542 1.23276H79.931V0.573669H47.5906V1.23276H48.6879C50.5303 1.21422 52.3326 1.77168 53.844 2.82755C55.3543 3.85902 56.5044 5.33867 57.1325 7.05869L67.3561 33.4188C67.7857 32.8297 68.3477 32.3502 68.9965 32.0191C69.6454 31.6881 70.3629 31.5148 71.0911 31.5132Z" fill="#D8A236"/>
<path d="M73.7458 38.0188C73.7458 35.4234 72.9926 33.2583 70.9922 33.2583C69.6291 33.2583 68.7737 34.4535 68.4193 36.1815L71.0161 42.8783C72.9006 42.8612 73.7458 40.8327 73.7458 38.0188Z" fill="#D8A236"/>
<path d="M82.1053 46.9216C82.0712 49.6536 83.1276 51.7025 84.8929 51.7025C86.7945 51.7025 87.6465 49.6536 87.6465 46.8396C87.6465 44.2443 86.8899 42.0792 84.8929 42.0792C83.0902 42.0928 82.1053 44.2272 82.1053 46.9216Z" fill="#D8A236"/>
<path d="M105.851 40.1838L96.9328 63.2075L89.6264 44.3432C89.8157 45.1258 89.9096 45.9285 89.9058 46.7337C89.9058 51.2346 87.5476 53.468 84.8247 53.468C82.17 53.468 79.8765 51.3337 79.8425 47.0616C79.8084 42.7894 82.17 40.3614 84.9917 40.3614C85.8029 40.3378 86.6046 40.5405 87.3074 40.947C88.0103 41.3534 88.5866 41.9475 88.9721 42.6631L84.8316 31.9742L74.1105 50.8727L84.4328 77.5094H92.1073L106.223 41.0649L105.851 40.1838Z" fill="#D8A236"/>
</svg>
