<?xml version="1.0" standalone="no"?>
<!DOCTYPE svg PUBLIC "-//W3C//DTD SVG 20010904//EN"
 "http://www.w3.org/TR/2001/REC-SVG-20010904/DTD/svg10.dtd">
<svg version="1.0" xmlns="http://www.w3.org/2000/svg"
 width="85.000000pt" height="70.000000pt" viewBox="0 0 85.000000 70.000000"
 preserveAspectRatio="xMidYMid meet">

<g transform="translate(0.000000,70.000000) scale(0.100000,-0.100000)"
fill="#000000" stroke="none">
<path d="M365 563 c-33 -6 -77 -15 -98 -18 -29 -5 -37 -10 -33 -21 3 -9 6 -77
6 -151 l0 -135 26 6 c41 11 215 16 269 8 37 -5 51 -12 53 -25 3 -14 -2 -18
-20 -15 -18 2 -23 -2 -25 -22 l-2 -25 8 25 c9 24 9 24 10 3 1 -13 7 -23 14
-23 7 0 18 -14 24 -30 13 -34 37 -32 47 3 9 35 7 97 -4 97 -6 0 -10 58 -10
155 0 171 4 162 -67 156 -12 -1 -48 4 -80 12 -47 10 -70 10 -118 0z m53 -97
c3 -23 -6 -38 -40 -74 l-43 -44 43 5 c31 4 42 2 42 -8 0 -21 -26 -31 -70 -27
-49 5 -50 18 -6 71 40 48 52 79 38 93 -14 14 -35 0 -28 -18 3 -8 -1 -14 -9
-14 -18 0 -20 36 -2 44 6 3 26 4 42 3 25 -2 31 -7 33 -31z m130 22 c-3 -7 -18
-14 -35 -16 -21 -2 -33 -10 -36 -23 -4 -15 -1 -19 12 -14 25 8 54 -18 54 -49
0 -41 -30 -68 -72 -64 -30 3 -36 7 -36 27 0 25 29 51 42 38 4 -5 1 -12 -6 -17
-14 -8 -8 -40 7 -40 17 0 34 29 30 52 -2 17 -11 24 -31 26 -26 3 -27 5 -21 40
9 51 10 52 55 52 28 0 39 -4 37 -12z m69 -125 c-2 -21 -4 -6 -4 32 0 39 2 55
4 38 2 -18 2 -50 0 -70z m-169 -73 c8 -8 11 -9 7 -2 -4 7 0 12 9 12 9 0 16 -4
16 -9 0 -16 -38 -23 -60 -11 -15 8 -20 8 -20 -1 0 -7 -3 -9 -6 -6 -9 9 15 37
29 34 7 -1 18 -9 25 -17z m169 -42 c-3 -7 -5 -2 -5 12 0 14 2 19 5 13 2 -7 2
-19 0 -25z"/>
<path d="M439 221 c-3 -9 -22 -13 -57 -13 -52 1 -62 -7 -43 -37 12 -19 32 -5
24 17 -6 16 -6 16 11 0 9 -10 24 -18 31 -18 7 0 16 8 18 18 4 15 5 15 6 0 1
-10 9 -16 20 -15 11 0 18 4 15 8 -2 4 0 10 6 14 5 3 10 -2 11 -12 0 -16 1 -16
9 2 6 15 9 16 9 4 1 -21 27 -20 27 1 0 13 -9 16 -36 16 -22 -1 -37 4 -41 14
-5 11 -7 12 -10 1z"/>
<path d="M297 206 c-4 -11 -3 -24 3 -30 14 -14 18 -5 10 24 -5 23 -7 23 -13 6z"/>
<path d="M340 141 l-35 -6 55 -38 c30 -20 59 -37 65 -37 6 0 35 17 65 37 l55
38 -50 7 c-60 8 -108 8 -155 -1z"/>
<path d="M228 123 c7 -3 16 -2 19 1 4 3 -2 6 -13 5 -11 0 -14 -3 -6 -6z"/>
<path d="M635 100 c-3 -5 -2 -10 4 -10 5 0 13 5 16 10 3 6 2 10 -4 10 -5 0
-13 -4 -16 -10z"/>
<path d="M198 93 c7 -3 16 -2 19 1 4 3 -2 6 -13 5 -11 0 -14 -3 -6 -6z"/>
</g>
</svg>
