<svg width="105" height="60" viewBox="0 0 105 60" fill="none" xmlns="http://www.w3.org/2000/svg">
<path d="M40.879 51.4699L42.5291 47.1265H43.1632L44.8114 51.4699H44.3108L43.9196 50.4288H41.7782L41.387 51.4699H40.879ZM41.9377 49.9932H43.7546L42.8443 47.5713L41.9377 49.9932Z" fill="white"/>
<path d="M45.0228 51.6166H44.2107L43.8195 50.5792H41.8784L41.4872 51.6203H40.6677L42.4272 46.9871H43.2633L45.0228 51.6166ZM44.4128 51.3176H44.5982L43.0594 47.2566H42.8851L43.966 50.1307H41.7227L42.8035 47.2566H42.6181L41.0793 51.3176H41.274L41.6652 50.2765H44.0105L44.4128 51.3176ZM42.1491 49.8409H43.5507L42.848 47.9949L42.1491 49.8409Z" fill="white"/>
<path d="M46.3707 51.5013C45.9948 51.4935 45.6233 51.4198 45.2731 51.2835V50.8607C45.6259 51.0078 46.0032 51.0879 46.3855 51.097C46.8731 51.097 47.1494 50.9124 47.1494 50.6374C47.1494 49.9415 45.2379 50.2867 45.2379 49.181C45.2379 48.6272 45.7941 48.3115 46.4375 48.3115C46.7908 48.2962 47.1427 48.3665 47.4627 48.5164V48.9447C47.1731 48.7826 46.8457 48.6992 46.5135 48.7029C46.1612 48.7029 45.7237 48.8173 45.7237 49.1828C45.7237 49.8732 47.6166 49.5206 47.6166 50.6079C47.6092 51.2078 47.1327 51.5013 46.3707 51.5013Z" fill="white"/>
<path d="M46.3689 51.6527C45.9766 51.6453 45.5887 51.5691 45.2231 51.4275L45.1267 51.3925V50.6541L45.3306 50.7408C45.6625 50.8788 46.0168 50.9551 46.3763 50.966C46.5209 50.966 46.9937 50.9439 46.9937 50.6504C46.9937 50.4658 46.7341 50.3809 46.3077 50.2609C45.7607 50.1095 45.0803 49.9194 45.0803 49.194C45.0803 48.5977 45.6365 48.1806 46.4263 48.1806C46.8043 48.1636 47.1807 48.2396 47.5221 48.4021L47.5981 48.4427V49.2124L47.3774 49.0814C47.1104 48.9321 46.8086 48.8557 46.5024 48.8599C46.4356 48.8599 45.859 48.8691 45.859 49.194C45.859 49.3786 46.1149 49.4598 46.5394 49.5742C47.0808 49.7219 47.752 49.9046 47.752 50.619C47.7538 51.2743 47.2495 51.6527 46.3689 51.6527ZM45.4233 51.1894C45.7284 51.3 46.0498 51.3593 46.3744 51.3648C46.8732 51.3648 47.4664 51.2337 47.4664 50.6153C47.4664 50.1557 47.0715 50.0154 46.4671 49.8511C46.0277 49.7311 45.5735 49.6074 45.5735 49.1921C45.5735 48.8137 45.9443 48.5682 46.5005 48.5682C46.7757 48.5675 47.0483 48.6202 47.3033 48.7233V48.6199C47.0232 48.5101 46.7235 48.4586 46.4226 48.4685C45.8979 48.4685 45.3677 48.6919 45.3677 49.1921C45.3677 49.6628 45.7682 49.8105 46.3818 49.9803C46.8231 50.104 47.2792 50.2314 47.2792 50.6486C47.2792 50.9402 47.04 51.254 46.3707 51.254C46.0442 51.2468 45.7208 51.1888 45.4122 51.0823L45.4233 51.1894Z" fill="white"/>
<path d="M49.719 48.3208C50.5848 48.3208 51.2467 48.978 51.2782 49.9175V50.1538H48.6659C48.6925 50.4196 48.8191 50.6655 49.0203 50.8422C49.2215 51.0189 49.4823 51.1132 49.7505 51.1063C49.9472 51.1017 50.1397 51.0488 50.3108 50.9522C50.4819 50.8555 50.6264 50.7182 50.7313 50.5525L51.1021 50.7371C50.9264 51.0416 50.6541 51.2792 50.3279 51.4126C50.0017 51.546 49.6401 51.5675 49.3003 51.4739C48.9604 51.3802 48.6615 51.1766 48.4507 50.8951C48.2398 50.6137 48.129 50.2704 48.1357 49.9194C48.1337 49.7108 48.1732 49.5038 48.2518 49.3105C48.3304 49.1171 48.4466 48.9411 48.5937 48.7925C48.7408 48.644 48.916 48.5258 49.1091 48.4449C49.3022 48.3639 49.5095 48.3218 49.719 48.3208ZM50.785 49.7588C50.7779 49.4861 50.665 49.2268 50.4701 49.0351C50.2752 48.8434 50.0133 48.7343 49.7394 48.7306C49.4611 48.7299 49.1934 48.8366 48.9925 49.0284C48.7916 49.2201 48.6732 49.4819 48.6622 49.7588H50.785Z" fill="white"/>
<path d="M49.745 51.6526C49.5146 51.657 49.2857 51.6147 49.0721 51.5285C48.8585 51.4423 48.6647 51.3139 48.5023 51.1511C48.3399 50.9882 48.2124 50.7943 48.1274 50.581C48.0424 50.3677 48.0017 50.1395 48.0078 49.9101C48.0043 49.4543 48.1825 49.0157 48.5033 48.6904C48.824 48.3652 49.2612 48.1798 49.719 48.1749C50.672 48.1749 51.3877 48.9133 51.4247 49.9119V50.2977H48.8365C48.8966 50.4915 49.0182 50.6606 49.183 50.7797C49.3478 50.8989 49.5469 50.9616 49.7506 50.9586C49.9235 50.9528 50.0923 50.9047 50.242 50.8184C50.3918 50.7321 50.5178 50.6103 50.609 50.4639L50.6794 50.3531L51.3172 50.6651L51.2356 50.7998C51.0854 51.0608 50.8682 51.2773 50.6063 51.4271C50.3443 51.577 50.0471 51.6548 49.745 51.6526ZM49.719 48.4647C49.3386 48.4696 48.9756 48.6245 48.7097 48.8955C48.4439 49.1664 48.2968 49.5313 48.3007 49.9101C48.2981 50.2125 48.3914 50.5079 48.5673 50.7544C48.7433 51.0009 48.9929 51.1858 49.2805 51.2828C49.5682 51.3797 49.8793 51.3838 50.1694 51.2944C50.4595 51.2051 50.7139 51.0268 50.8963 50.7851L50.7777 50.7278C50.6572 50.8869 50.5019 51.0165 50.3236 51.107C50.1454 51.1975 49.9488 51.2465 49.7487 51.2502C49.4432 51.2581 49.1462 51.1498 48.9179 50.9476C48.6896 50.7453 48.5472 50.4641 48.5195 50.1611V50.0079H51.1392V49.9156C51.104 49.0776 50.5089 48.4666 49.719 48.4666V48.4647ZM50.939 49.9027H48.5065V49.7495C48.519 49.4353 48.6536 49.1382 48.8819 48.9209C49.1102 48.7036 49.4143 48.583 49.7302 48.5847C50.0417 48.5875 50.3399 48.7104 50.5623 48.9276C50.7846 49.1449 50.9137 49.4395 50.9223 49.7495L50.939 49.9027ZM48.8273 49.6129H50.6145C50.577 49.407 50.4685 49.2206 50.3077 49.0858C50.147 48.951 49.944 48.8763 49.7339 48.8745C49.5202 48.8745 49.313 48.948 49.1475 49.0825C48.9819 49.2171 48.8682 49.4044 48.8254 49.6129H48.8273Z" fill="white"/>
<path d="M52.9635 51.5013C52.5876 51.4937 52.216 51.4199 51.8659 51.2835V50.8608C52.2158 51.0068 52.5898 51.0869 52.969 51.0971C53.4566 51.0971 53.7329 50.9125 53.7329 50.6374C53.7329 49.9415 51.8214 50.2867 51.8214 49.181C51.8214 48.6272 52.3776 48.3116 53.021 48.3116C53.3749 48.296 53.7274 48.3663 54.0481 48.5165V48.9447C53.7584 48.7826 53.4311 48.6992 53.0988 48.7029C52.7466 48.7029 52.309 48.8173 52.309 49.1828C52.309 49.8732 54.202 49.5206 54.202 50.6079C54.202 51.2078 53.7273 51.5013 52.9635 51.5013Z" fill="white"/>
<path d="M52.9636 51.6527C52.5713 51.6456 52.1834 51.5693 51.8178 51.4275L51.7214 51.3924V50.654L51.9253 50.7426C52.2571 50.8808 52.6115 50.9571 52.971 50.9678C53.1156 50.9678 53.5884 50.9457 53.5884 50.6522C53.5884 50.4676 53.3288 50.3827 52.9024 50.2627C52.3555 50.1113 51.675 49.9212 51.675 49.1957C51.675 48.5995 52.2312 48.1823 53.0192 48.1823C53.3972 48.1656 53.7734 48.2417 54.1149 48.4038L54.1928 48.4444V49.2142L53.9722 49.085C53.7052 48.9352 53.4034 48.8582 53.0971 48.8616C53.0303 48.8616 52.4537 48.8708 52.4537 49.1957C52.4537 49.3803 52.7096 49.4615 53.1323 49.576C53.6737 49.7237 54.3448 49.9064 54.3448 50.6208C54.3485 51.2742 53.8442 51.6527 52.9636 51.6527ZM52.0125 51.1875C52.3175 51.2981 52.639 51.3573 52.9636 51.3628C53.4623 51.3628 54.0556 51.2318 54.0556 50.6134C54.0556 50.1538 53.6607 50.0135 53.0581 49.8492C52.6187 49.7292 52.1645 49.6055 52.1645 49.1902C52.1645 48.8118 52.5353 48.5663 53.0915 48.5663C53.3667 48.5655 53.6394 48.6182 53.8943 48.7213V48.618C53.6141 48.5084 53.3145 48.4569 53.0136 48.4666C52.489 48.4666 51.9606 48.6899 51.9606 49.1902C51.9606 49.6609 52.3629 49.8086 52.9747 49.9784C53.416 50.1021 53.872 50.2294 53.872 50.6466C53.872 50.9383 53.6329 51.2521 52.9617 51.2521C52.6358 51.2449 52.313 51.1869 52.0051 51.0804L52.0125 51.1875Z" fill="white"/>
<path d="M56.3453 48.3207C56.665 48.3178 56.9784 48.4096 57.2456 48.5843C57.5128 48.7591 57.7219 49.009 57.8462 49.3023C57.9705 49.5955 58.0045 49.919 57.9438 50.2315C57.8831 50.5441 57.7304 50.8316 57.5053 51.0576C57.2801 51.2836 56.9926 51.4379 56.6791 51.5009C56.3657 51.5638 56.0406 51.5326 55.745 51.4112C55.4495 51.2899 55.1968 51.0838 55.0191 50.8191C54.8414 50.5544 54.7468 50.2432 54.7471 49.9249C54.7456 49.7149 54.7859 49.5067 54.8655 49.3123C54.9452 49.1178 55.0626 48.941 55.2111 48.7919C55.3597 48.6428 55.5363 48.5245 55.731 48.4436C55.9256 48.3627 56.1344 48.321 56.3453 48.3207ZM56.3453 51.1118C56.9868 51.1118 57.4354 50.5377 57.4354 49.9249C57.4354 49.312 56.9868 48.749 56.3453 48.749C56.042 48.7659 55.7568 48.8977 55.5481 49.1174C55.3395 49.3371 55.2232 49.628 55.2232 49.9304C55.2232 50.2328 55.3395 50.5237 55.5481 50.7434C55.7568 50.9631 56.042 51.0949 56.3453 51.1118Z" fill="white"/>
<path d="M56.3452 51.686C55.996 51.6929 55.6525 51.5962 55.3587 51.4082C55.0648 51.2201 54.8339 50.9493 54.6952 50.6301C54.5565 50.3109 54.5163 49.9578 54.5799 49.6158C54.6435 49.2738 54.8078 48.9584 55.0521 48.7097C55.2963 48.4611 55.6093 48.2904 55.9513 48.2195C56.2933 48.1486 56.6487 48.1807 56.9723 48.3116C57.296 48.4425 57.5731 48.6664 57.7685 48.9547C57.9639 49.243 58.0686 49.5827 58.0694 49.9305C58.0715 50.39 57.8917 50.8318 57.569 51.1604C57.2463 51.4889 56.8067 51.6777 56.3452 51.686ZM56.3452 48.4722C56.0532 48.4652 55.7658 48.5451 55.5197 48.7016C55.2735 48.8581 55.0798 49.0842 54.9634 49.3508C54.8469 49.6175 54.813 49.9127 54.8659 50.1987C54.9188 50.4846 55.0562 50.7484 55.2605 50.9562C55.4647 51.1641 55.7266 51.3065 56.0126 51.3654C56.2986 51.4243 56.5957 51.397 56.8661 51.2869C57.1364 51.1767 57.3675 50.9889 57.5301 50.7473C57.6926 50.5056 57.779 50.2213 57.7784 49.9305C57.7814 49.5477 57.6325 49.1792 57.3641 48.9051C57.0958 48.631 56.7296 48.4735 56.3452 48.4667V48.4722ZM56.3452 51.2632C56.0068 51.2415 55.6894 51.0923 55.4575 50.8459C55.2255 50.5996 55.0965 50.2746 55.0965 49.9369C55.0965 49.5993 55.2255 49.2743 55.4575 49.028C55.6894 48.7816 56.0068 48.6324 56.3452 48.6106C56.6793 48.6384 56.9908 48.7902 57.2178 49.0358C57.4447 49.2815 57.5707 49.6031 57.5707 49.9369C57.5707 50.2708 57.4447 50.5924 57.2178 50.838C56.9908 51.0837 56.6793 51.2355 56.3452 51.2632ZM56.3452 48.9005C56.0823 48.9196 55.8363 49.0371 55.6568 49.2294C55.4773 49.4217 55.3776 49.6744 55.3776 49.9369C55.3776 50.1995 55.4773 50.4522 55.6568 50.6445C55.8363 50.8368 56.0823 50.9543 56.3452 50.9734C56.9292 50.9734 57.2908 50.4326 57.2908 49.9305C57.2908 49.4284 56.9348 48.8949 56.3508 48.8949L56.3452 48.9005Z" fill="white"/>
<path d="M59.1856 48.3633V48.9447C59.3036 48.7608 59.4657 48.609 59.6573 48.503C59.8489 48.397 60.064 48.3401 60.2832 48.3374C60.3978 48.3369 60.5119 48.3518 60.6225 48.3817V48.8358C60.5194 48.8099 60.4135 48.7969 60.3073 48.7971C60.0607 48.7962 59.8201 48.8721 59.619 49.0141C59.4179 49.156 59.2664 49.357 59.1856 49.589V51.4736H58.7184V48.3633H59.1856Z" fill="white"/>
<path d="M59.3284 51.6157H58.5682V48.2137H59.3284V48.5478C59.5055 48.3882 59.7201 48.2755 59.9523 48.2201C60.1846 48.1646 60.4271 48.1681 60.6577 48.2303L60.7652 48.2598V49.0093L60.5798 48.965C60.4889 48.9425 60.3954 48.9314 60.3017 48.9317C60.0889 48.9308 59.881 48.9952 59.7061 49.1161C59.5313 49.237 59.3982 49.4085 59.3247 49.6074L59.3284 51.6157ZM58.863 51.3167H59.0484V49.5501L59.0577 49.5243C59.1484 49.2644 59.3186 49.0393 59.5444 48.8807C59.7702 48.7221 60.0402 48.638 60.3166 48.6401C60.3729 48.6399 60.4293 48.643 60.4853 48.6493V48.485C60.424 48.4753 60.362 48.4704 60.2999 48.4703C60.1044 48.4723 59.9126 48.523 59.742 48.6178C59.5713 48.7126 59.4272 48.8484 59.3228 49.013L59.0558 49.4006V48.4943H58.8704L58.863 51.3167Z" fill="white"/>
<path d="M61.4883 47.1265H62.1372L61.4253 47.9701H60.9822L61.4883 47.1265ZM61.3159 48.3595H61.7905V51.4699H61.3159V48.3595Z" fill="white"/>
<path d="M61.9369 51.6158H61.1712V48.2137H61.9369V51.6158ZM61.4622 51.3167H61.6476V48.5054H61.4622V51.3167ZM61.4938 48.1067H60.7262L61.4066 46.9733H62.4504L61.4938 48.1067ZM61.2398 47.8169H61.3566L61.8238 47.2631H61.5716L61.2398 47.8169Z" fill="white"/>
<path d="M63.7594 49.6812H64.6567V49.528C64.6567 48.9983 64.3489 48.7232 63.8354 48.7232C63.4888 48.7288 63.1574 48.8654 62.9084 49.1053L62.684 48.7989C62.8414 48.6433 63.0289 48.5212 63.2351 48.44C63.4413 48.3588 63.6619 48.3201 63.8836 48.3263C64.5955 48.3263 65.1221 48.7103 65.1221 49.456V51.4736H64.653V51.1045C64.5206 51.2482 64.3573 51.3602 64.1752 51.4321C63.9932 51.5041 63.7971 51.534 63.6018 51.5198C63.0178 51.5198 62.5302 51.2577 62.5302 50.6245C62.5302 49.9914 63.0789 49.6812 63.7594 49.6812ZM63.0178 50.5747C63.0178 50.99 63.3515 51.1285 63.7371 51.1285C63.9321 51.1432 64.1268 51.0961 64.2933 50.994C64.4598 50.8918 64.5896 50.7399 64.6641 50.5599V50.0486H63.8298C63.3886 50.0578 63.0159 50.1409 63.0159 50.5784L63.0178 50.5747Z" fill="white"/>
<path d="M63.6055 51.6526C62.8639 51.6526 62.3893 51.2539 62.3893 50.6134C62.3893 49.9396 62.901 49.5372 63.7594 49.5354L64.5121 49.5206C64.5121 49.0831 64.2841 48.8616 63.8373 48.8616C63.5293 48.8675 63.2352 48.9896 63.0141 49.2031L62.8936 49.3194L62.4987 48.7785L62.584 48.6899C62.7546 48.5218 62.9574 48.3894 63.1803 48.3007C63.4032 48.2119 63.6417 48.1685 63.8818 48.1731C64.7216 48.1731 65.2649 48.6733 65.2649 49.4486V51.612H64.5195V51.4071C64.2471 51.5797 63.9282 51.6654 63.6055 51.6526ZM63.7594 49.8252C63.3571 49.8252 62.6804 49.9267 62.6804 50.6115C62.6804 51.2631 63.2607 51.361 63.6074 51.361C63.7824 51.3735 63.958 51.3468 64.1213 51.2829C64.2846 51.219 64.4314 51.1195 64.5511 50.9918L64.8051 50.7094V51.3167H64.9905V49.4523C64.9905 48.8357 64.5826 48.4666 63.8984 48.4666C63.5318 48.4553 63.1737 48.5781 62.8917 48.8117L62.9473 48.8874C63.2047 48.6879 63.5203 48.5771 63.8465 48.5718C64.4528 48.5718 64.8143 48.9262 64.8143 49.5206V49.8178L63.7594 49.8252ZM63.7334 51.2816C63.1921 51.2816 62.8695 51.0176 62.8695 50.5746C62.8695 49.9119 63.587 49.9119 63.8243 49.9119H64.8032V50.6023L64.7884 50.6318C64.7009 50.835 64.5527 51.0066 64.364 51.1231C64.1753 51.2397 63.9552 51.2957 63.7334 51.2834V51.2816ZM63.8243 50.2017C63.2681 50.2017 63.1606 50.3512 63.1606 50.5709C63.1606 50.8478 63.346 50.9881 63.7334 50.9881C63.8947 51.0003 64.0558 50.963 64.1951 50.8811C64.3344 50.7993 64.445 50.6768 64.5121 50.5303V50.2091L63.8243 50.2017Z" fill="white"/>
<path d="M2.22473 57.1979C2.22473 55.7562 3.16471 54.5785 4.71096 54.5785C5.16322 54.5619 5.61076 54.6748 6.0005 54.9039C6.39025 55.1329 6.70583 55.4684 6.90981 55.8707L6.3944 56.1955C6.24171 55.8786 6.00327 55.6103 5.70589 55.4209C5.40851 55.2314 5.06397 55.1283 4.71096 55.123C3.57445 55.123 2.85695 56.046 2.85695 57.1979C2.85695 58.3497 3.56889 59.2727 4.71096 59.2727C5.05687 59.2748 5.39646 59.1804 5.69133 59.0003C5.98621 58.8203 6.2246 58.5617 6.37957 58.2537L6.9024 58.586C6.50008 59.3244 5.77331 59.8172 4.71096 59.8172C3.18511 59.8172 2.22473 58.6322 2.22473 57.1979Z" fill="white"/>
<path d="M4.71656 59.9636C3.19071 59.9636 2.08386 58.8006 2.08386 57.1947C2.08386 55.5887 3.1666 54.4258 4.71656 54.4258C5.19661 54.408 5.67163 54.5285 6.08465 54.7727C6.49768 55.017 6.83119 55.3746 7.04519 55.8028L7.11008 55.9228L6.34809 56.4028L6.27393 56.2643C6.13357 55.971 5.91379 55.7225 5.63932 55.5467C5.36485 55.3709 5.04656 55.2749 4.72026 55.2694C3.71725 55.2694 3.01643 56.0631 3.01643 57.2002C3.01643 58.3373 3.71725 59.1311 4.72026 59.1311C5.0396 59.1335 5.35319 59.0465 5.62527 58.8801C5.89736 58.7136 6.11698 58.4744 6.25909 58.1896L6.33325 58.0512L7.10267 58.5404L7.03963 58.6585C6.58169 59.4984 5.75851 59.9636 4.71656 59.9636ZM4.71656 54.7267C3.33903 54.7267 2.37494 55.7438 2.37494 57.2002C2.37494 58.6567 3.35942 59.6738 4.71656 59.6738C5.61019 59.6738 6.29617 59.3156 6.71147 58.6363L6.43337 58.4518C6.25433 58.7457 6.00199 58.9886 5.70085 59.1568C5.3997 59.325 5.05999 59.4128 4.7147 59.4116C3.5578 59.4116 2.71979 58.4776 2.71979 57.1965C2.71979 55.9155 3.55965 54.9814 4.7147 54.9814C5.06753 54.9841 5.41344 55.0792 5.71771 55.2571C6.02198 55.4349 6.27391 55.6894 6.4482 55.9948L6.71703 55.825C6.51594 55.4775 6.22329 55.1914 5.87072 54.9975C5.51814 54.8036 5.11904 54.7093 4.71656 54.7248V54.7267Z" fill="white"/>
<path d="M7.55139 57.2145C7.55139 55.7377 8.6434 54.5803 10.1062 54.5803C11.569 54.5803 12.6462 55.7433 12.6462 57.2145C12.6462 58.6857 11.5542 59.856 10.1062 59.856C8.65824 59.856 7.55139 58.7004 7.55139 57.2145ZM12.001 57.2145C12.001 56.0441 11.189 55.123 10.0988 55.123C9.00864 55.123 8.18176 56.046 8.18176 57.2145C8.18176 58.3829 8.9864 59.3114 10.0988 59.3114C11.2112 59.3114 12.0084 58.3755 12.0084 57.2145H12.001Z" fill="white"/>
<path d="M10.1062 59.9926C8.56737 59.9926 7.40491 58.7946 7.40491 57.2053C7.40491 55.6473 8.59147 54.4253 10.1062 54.4253C11.6209 54.4253 12.7927 55.6547 12.7927 57.2145C12.7927 58.7743 11.6117 59.9926 10.1062 59.9926ZM10.1062 54.717C8.73238 54.717 7.69599 55.7876 7.69599 57.2053C7.69599 58.6229 8.73238 59.701 10.1062 59.701C11.48 59.701 12.4997 58.6285 12.4997 57.2053C12.4997 55.7821 11.4485 54.7243 10.1062 54.7243V54.717ZM10.1062 59.4481C8.9289 59.4481 8.04269 58.4845 8.04269 57.2053C8.04269 55.926 8.93076 54.9698 10.1062 54.9698C11.2816 54.9698 12.1456 55.9316 12.1456 57.2053C12.1456 58.479 11.2538 59.4573 10.1062 59.4573V59.4481ZM10.1062 55.2597C9.09576 55.2597 8.33377 56.0959 8.33377 57.2053C8.33377 58.3147 9.09576 59.1583 10.1062 59.1583C11.1166 59.1583 11.8657 58.3091 11.8657 57.2145C11.8657 56.1199 11.1074 55.2689 10.1062 55.2689V55.2597Z" fill="white"/>
<path d="M14.4353 54.6394L17.2552 59.0696V54.6394H17.8541V59.7711H17.0198L14.2388 55.3704V59.7711H13.6381V54.6394H14.4353Z" fill="white"/>
<path d="M17.9987 59.9095H16.9382L14.3759 55.8669V59.9114H13.4916V54.488H14.5131L17.1087 58.5768V54.488H17.9987V59.9095ZM17.0995 59.6234H17.7076V54.7778H17.3998V59.5773L14.3537 54.7778H13.7845V59.6234H14.0904V54.8628L17.0995 59.6234Z" fill="white"/>
<path d="M23.3605 54.6394V55.16H21.3489V59.7748H20.7426V55.16H18.7255V54.6394H23.3605Z" fill="white"/>
<path d="M21.4935 59.9096H20.5962V55.2947H18.5864V54.4844H23.5033V55.2947H21.4935V59.9096ZM20.8873 59.6234H21.2024V55.0086H23.2103V54.7779H18.8775V55.0086H20.8873V59.6234Z" fill="white"/>
<path d="M23.1436 59.7655L25.0921 54.6394H25.8337L27.7823 59.7711H27.1909L26.7292 58.5398H24.2059L23.7443 59.7711L23.1436 59.7655ZM24.395 58.0285H26.5475L25.4703 55.1673L24.395 58.0285Z" fill="white"/>
<path d="M27.9955 59.9095H27.0926L26.631 58.6783H24.3079L23.8463 59.9095H22.9341L24.992 54.4862H25.9431L27.9955 59.9095ZM27.3021 59.6234H27.5821L25.7448 54.7816H25.4833L26.7608 58.1781H24.1855L25.463 54.7816H25.1941L23.3605 59.6234H23.6479L24.1095 58.3922H26.8442L27.3021 59.6234ZM24.6064 57.8883H26.338L25.4722 55.5864L24.6064 57.8883Z" fill="white"/>
<path d="M28.6018 54.6394H30.4985C31.5682 54.6394 32.1819 55.0769 32.1819 55.9316C32.1819 56.5573 31.8482 56.9284 31.3031 57.1093C32.1133 57.2606 32.486 57.7129 32.486 58.4014C32.486 59.2782 31.8797 59.7674 30.6672 59.7674H28.6018V54.6394ZM30.3687 56.9339C30.9527 56.9339 31.5738 56.7142 31.5738 56.0497C31.5738 55.4239 31.051 55.1673 30.4206 55.1673H29.1932V56.9339H30.3687ZM30.6264 59.2431C31.4681 59.2431 31.8704 58.9035 31.8704 58.2999C31.8704 57.6963 31.4607 57.3861 30.6431 57.3861H29.1951V59.2358L30.6264 59.2431Z" fill="white"/>
<path d="M30.6653 59.9095H28.4572V54.488H30.4966C31.6757 54.488 32.3246 54.9975 32.3246 55.9242C32.3359 56.1511 32.2858 56.3768 32.1794 56.5778C32.0731 56.7788 31.9145 56.9477 31.7202 57.0668C31.9981 57.158 32.238 57.3381 32.4023 57.5792C32.5666 57.8203 32.6462 58.1087 32.6287 58.3996C32.6305 58.9626 32.3747 59.9095 30.6653 59.9095ZM28.7482 59.6234H30.6653C31.7777 59.6234 32.3339 59.2118 32.3339 58.4014C32.3339 57.7572 31.9853 57.3788 31.2697 57.2459L30.7135 57.1425L31.2474 56.9579C31.7721 56.7825 32.028 56.4429 32.028 55.9186C32.028 54.9717 31.1918 54.7723 30.491 54.7723H28.7408L28.7482 59.6234ZM30.6263 59.3853H29.0486V57.2348H30.643C31.8389 57.2348 32.0168 57.8975 32.0168 58.2925C32.0168 58.6875 31.8352 59.3816 30.6263 59.3816V59.3853ZM29.3397 59.0955H30.6263C31.3679 59.0955 31.7239 58.8334 31.7239 58.2962C31.7239 58.1116 31.7239 57.5283 30.6412 57.5283H29.3434L29.3397 59.0955ZM30.3686 57.076H29.0486V55.0086H30.4224C31.2345 55.0086 31.7202 55.3925 31.7202 56.0368C31.7202 56.681 31.2029 57.0723 30.3686 57.0723V57.076ZM29.3397 56.7862H30.3686C30.6875 56.7862 31.4273 56.7142 31.4273 56.0478C31.4273 55.3815 30.7969 55.3095 30.4205 55.3095H29.3378L29.3397 56.7862Z" fill="white"/>
<path d="M33.4927 54.6394H34.0915V59.2542H36.6V59.7748H33.4927V54.6394Z" fill="white"/>
<path d="M36.7464 59.9095H33.3462V54.488H34.2361V59.1029H36.7464V59.9095ZM33.6373 59.6234H36.4535V59.3927H33.945V54.7778H33.6373V59.6234Z" fill="white"/>
<path d="M41.057 54.6394V55.16H38.1314V56.98H40.6028V57.508H38.1314V59.2505H41.057V59.7711H37.5344V54.6394H41.057Z" fill="white"/>
<path d="M41.2035 59.9095H37.3936V54.488H41.2035V55.2984H38.2779V56.8268H40.7493V57.6446H38.2779V59.0973H41.2035V59.9095ZM37.6809 59.6197H40.9069V59.389H37.985V57.3585H40.4564V57.1203H37.985V55.0086H40.9106V54.7778H37.6846L37.6809 59.6197Z" fill="white"/>
<path d="M47.509 54.6394V55.16H44.6353V56.9948H47.0455V57.5227H44.6353V59.7711H44.0438V54.6394H47.509Z" fill="white"/>
<path d="M44.7817 59.9095H43.8992V54.488H47.648V55.2984H44.7743V56.8416H47.1845V57.6593H44.7743L44.7817 59.9095ZM44.1903 59.6234H44.4962V57.3714H46.9064V57.1333H44.4962V55.0086H47.3699V54.7778H44.1903V59.6234Z" fill="white"/>
<path d="M48.3285 54.6394H48.9273V59.7711H48.3285V54.6394Z" fill="white"/>
<path d="M49.0719 59.9095H48.182V54.488H49.0719V59.9095ZM48.4731 59.6234H48.7808V54.7778H48.4731V59.6234Z" fill="white"/>
<path d="M51.0112 54.6394L53.8312 59.0696V54.6394H54.43V59.7711H53.5957L50.8147 55.3704V59.7711H50.2233V54.6394H51.0112Z" fill="white"/>
<path d="M54.5764 59.9095H53.5159L50.9518 55.8651V59.9095H50.0693V54.488H51.0909L53.6865 58.5768V54.488H54.5764V59.9095ZM53.6772 59.6234H54.2853V54.7778H53.9776V59.5773L50.9314 54.7778H50.3623V59.6234H50.6626V54.8628L53.6772 59.6234Z" fill="white"/>
<path d="M55.2253 59.7655L57.1739 54.6394H57.9155L59.8641 59.7711H59.2726L58.811 58.5398H56.2877L55.826 59.7711L55.2253 59.7655ZM56.4768 58.0285H58.6293L57.5521 55.1673L56.4768 58.0285Z" fill="white"/>
<path d="M60.0829 59.9095H59.18L58.7183 58.6783H56.3878L55.9262 59.9095H55.0159L57.0738 54.4862H58.0305L60.0829 59.9095ZM59.3821 59.6234H59.662L57.8247 54.7816H57.5633L58.8407 58.1781H56.2655L57.5429 54.7816H57.2741L55.4349 59.6234H55.7222L56.1839 58.3922H58.9204L59.3821 59.6234ZM56.6863 57.8883H58.418L57.5522 55.5864L56.6863 57.8883Z" fill="white"/>
<path d="M61.479 54.6394L64.2989 59.0696V54.6394H64.8904V59.7711H64.056L61.275 55.3704V59.7711H60.6836V54.6394H61.479Z" fill="white"/>
<path d="M65.0442 59.9095H63.9837L61.4196 55.8651V59.9095H60.5371V54.488H61.5531L64.1487 58.5768V54.488H65.0386L65.0442 59.9095ZM64.1487 59.6234H64.7568V54.7778H64.4454V59.5773L61.3992 54.7778H60.83V59.6234H61.1304V54.8628L64.1487 59.6234Z" fill="white"/>
<path d="M65.884 57.1979C65.884 55.7562 66.824 54.5785 68.3703 54.5785C68.8225 54.5619 69.2701 54.6748 69.6598 54.9039C70.0495 55.1329 70.3651 55.4684 70.5691 55.8707L70.0537 56.1955C69.901 55.8786 69.6626 55.6103 69.3652 55.4209C69.0678 55.2314 68.7233 55.1283 68.3703 55.123C67.2338 55.123 66.5163 56.046 66.5163 57.1979C66.5163 58.3497 67.2282 59.2727 68.3703 59.2727C68.7162 59.2748 69.0558 59.1804 69.3506 59.0003C69.6455 58.8203 69.8839 58.5617 70.0389 58.2537L70.5617 58.586C70.1594 59.3244 69.4326 59.8172 68.3703 59.8172C66.8388 59.8172 65.884 58.6322 65.884 57.1979Z" fill="white"/>
<path d="M68.3702 59.9631C66.8444 59.9631 65.7375 58.8001 65.7375 57.1942C65.7375 55.5882 66.8203 54.4253 68.3702 54.4253C68.849 54.407 69.3229 54.5263 69.7355 54.7688C70.148 55.0114 70.4818 55.3669 70.697 55.7931L70.7601 55.9131L69.9981 56.393L69.9239 56.2546C69.7835 55.9613 69.5638 55.7127 69.2893 55.537C69.0148 55.3612 68.6965 55.2651 68.3702 55.2596C67.3672 55.2596 66.6664 56.0534 66.6664 57.1905C66.6664 58.3276 67.3672 59.1213 68.3702 59.1213C68.6895 59.1235 69.003 59.0365 69.2751 58.87C69.5471 58.7036 69.7668 58.4645 69.9091 58.1799L69.9832 58.0415L70.7526 58.5306L70.6896 58.6488C70.2372 59.4979 69.414 59.9631 68.3702 59.9631ZM68.3702 54.7262C66.9927 54.7262 66.0286 55.7433 66.0286 57.1997C66.0286 58.6561 67.0131 59.6733 68.3702 59.6733C69.2639 59.6733 69.9499 59.3151 70.3652 58.6358L70.087 58.4512C69.9079 58.7451 69.6555 58.9879 69.3544 59.156C69.0533 59.3242 68.7136 59.4121 68.3684 59.4111C67.2115 59.4111 66.3735 58.4771 66.3735 57.196C66.3735 55.9149 67.2133 54.9809 68.3684 54.9809C68.7212 54.9836 69.0671 55.0787 69.3714 55.2566C69.6757 55.4344 69.9276 55.6889 70.1019 55.9943L70.3707 55.8245C70.1696 55.477 69.877 55.1909 69.5244 54.997C69.1718 54.8031 68.7727 54.7088 68.3702 54.7243V54.7262Z" fill="white"/>
<path d="M71.4943 54.6394H72.0931V59.7711H71.4943V54.6394Z" fill="white"/>
<path d="M72.2378 59.9095H71.3479V54.488H72.2378V59.9095ZM71.639 59.6234H71.9467V54.7778H71.639V59.6234Z" fill="white"/>
<path d="M76.8987 54.6394V55.16H73.9749V56.98H76.4463V57.508H73.9749V59.2505H76.9006V59.7711H73.3779V54.6394H76.8987Z" fill="white"/>
<path d="M77.0452 59.9095H73.2334V54.488H77.0434V55.2984H74.1178V56.8268H76.5892V57.6446H74.1178V59.0973H77.0434L77.0452 59.9095ZM73.5226 59.6197H76.756V59.389H73.8267V57.3585H76.2981V57.1203H73.8267V55.0086H76.756V54.7778H73.53L73.5226 59.6197Z" fill="white"/>
<path d="M77.9907 54.6394H79.9078C81.3261 54.6394 81.8638 55.3778 81.8638 56.2841C81.8638 57.0613 81.4763 57.6723 80.4844 57.831L81.7618 59.7655H81.0943L79.8818 57.8716H78.584V59.7655H77.9926L77.9907 54.6394ZM79.8781 57.3788C80.8478 57.3788 81.2427 56.9413 81.2427 56.2841C81.2427 55.627 80.8478 55.1766 79.8781 55.1766H78.5803V57.3732L79.8781 57.3788Z" fill="white"/>
<path d="M82.0344 59.9095H81.0202L79.8077 58.0156H78.7305V59.9095H77.848V54.488H79.9078C81.2427 54.488 82.0103 55.1415 82.0103 56.2786C82.0103 57.1425 81.5561 57.7203 80.7236 57.9252L82.0344 59.9095ZM81.1778 59.6234H81.4949L80.2453 57.7203L80.4677 57.6852C81.3021 57.5523 81.7248 57.0797 81.7248 56.2804C81.7248 55.5956 81.4114 54.7797 79.9153 54.7797H78.1354V59.6234H78.4357V57.7258H79.9653L81.1778 59.6234ZM79.88 57.5209H78.4376V55.0307H79.88C81.1278 55.0307 81.391 55.7082 81.391 56.2786C81.391 56.7401 81.1927 57.5172 79.8782 57.5172L79.88 57.5209ZM78.7268 57.2237H79.8782C80.6976 57.2237 81.0963 56.9136 81.0963 56.2749C81.0963 55.6362 80.6976 55.3187 79.8782 55.3187H78.7268V57.2237Z" fill="white"/>
<path d="M82.4163 59.7655L84.3574 54.6394H85.099L87.0476 59.7711H86.4562L85.9945 58.5398H83.4786L83.017 59.7711L82.4163 59.7655ZM83.6677 58.0285H85.8221L84.7449 55.1673L83.6677 58.0285Z" fill="white"/>
<path d="M87.2757 59.9095H86.3727L85.9111 58.6783H83.5806L83.119 59.9095H82.2068L84.2647 54.4862H85.2158L87.2757 59.9095ZM86.5823 59.6234H86.8622L85.0249 54.7816H84.7635L86.0409 58.1781H83.4582L84.7357 54.7816H84.4668L82.6277 59.6234H82.915L83.3767 58.3922H86.1113L86.5823 59.6234ZM83.8865 57.8883H85.6182L84.7523 55.5864L83.8865 57.8883Z" fill="white"/>
<path d="M89.5486 59.4389V58.8279C90.1081 59.0946 90.7176 59.2411 91.3377 59.258C92.1498 59.258 92.6355 58.9792 92.6355 58.4882C92.6355 57.281 89.5875 57.6649 89.5875 55.915C89.5875 55.1231 90.216 54.5711 91.4823 54.5711C92.0451 54.5468 92.6016 54.6971 93.0749 55.0012V55.555C92.6092 55.2716 92.0745 55.1203 91.5287 55.1175C90.6332 55.1175 90.2086 55.4867 90.2086 55.9408C90.2086 57.1333 93.2714 56.7567 93.2714 58.4624C93.2714 59.0291 92.9451 59.8136 91.347 59.8136C90.7288 59.8053 90.1182 59.6781 89.5486 59.4389Z" fill="white"/>
<path d="M91.3545 59.9631C90.7176 59.9552 90.0882 59.8255 89.5005 59.581L89.4133 59.5422V58.6008L89.6247 58.706C90.164 58.9629 90.7513 59.1044 91.3489 59.1214C92.0738 59.1214 92.5077 58.8888 92.5077 58.4974C92.5077 58.0526 91.9515 57.8551 91.2914 57.6262C90.4757 57.34 89.4597 56.9838 89.4597 55.9242C89.4597 55.0013 90.2235 54.4364 91.4991 54.4364C92.4854 54.4364 93.0342 54.7871 93.1788 54.8942L93.2382 54.9385V55.8172L93.0175 55.6879C92.5747 55.4167 92.0653 55.2723 91.5454 55.2708C90.8224 55.2708 90.3719 55.531 90.3719 55.9482C90.3719 56.3654 90.941 56.5832 91.6011 56.8084C92.4613 57.1019 93.4347 57.436 93.4347 58.4698C93.4254 58.9165 93.2252 59.9631 91.3545 59.9631ZM89.6951 59.3521C90.2242 59.5583 90.7864 59.6672 91.3545 59.6733C92.9026 59.6733 93.1343 58.9183 93.1343 58.4679C93.1343 57.6428 92.3019 57.3604 91.4972 57.0816C90.7556 56.8306 90.0715 56.5943 90.0715 55.9464C90.0715 55.4775 90.4571 54.9791 91.5362 54.9791C92.0232 54.9788 92.5031 55.0947 92.9359 55.3169V55.0862C92.4979 54.8312 91.997 54.7033 91.4898 54.717C90.3774 54.717 89.7396 55.1545 89.7396 55.915C89.7396 56.7697 90.5721 57.0613 91.3767 57.3437C92.1016 57.5985 92.7876 57.8384 92.7876 58.4901C92.7876 59.0623 92.2463 59.413 91.3378 59.413C90.7732 59.3982 90.2162 59.2793 89.6951 59.0623V59.3521Z" fill="white"/>
<path d="M94.369 58.8591H94.9901V59.7655H94.369V58.8591Z" fill="white"/>
<path d="M95.131 59.9095H94.2189V58.7134H95.131V59.9095ZM94.51 59.6234H94.84V59.0069H94.51V59.6234Z" fill="white"/>
<path d="M95.8523 59.7655L97.799 54.6394H98.5406L100.489 59.7711H99.8977L99.4361 58.5398H96.9128L96.4511 59.7711L95.8523 59.7655ZM97.1037 58.0285H99.2562L98.1791 55.1673L97.1037 58.0285Z" fill="white"/>
<path d="M100.708 59.9095H99.805L99.3433 58.6783H97.0128L96.5512 59.9095H95.6409L97.7062 54.488H98.6573L100.708 59.9095ZM100.007 59.6234H100.287L98.4478 54.7778H98.1864L99.4638 58.1744H96.8905L98.1679 54.7778H97.8916L96.0617 59.6234H96.3491L96.8107 58.3922H99.5454L100.007 59.6234ZM97.3113 57.8882H99.043L98.1772 55.5864L97.3113 57.8882Z" fill="white"/>
<path d="M101.362 58.8591H101.983V59.7655H101.362V58.8591Z" fill="white"/>
<path d="M102.128 59.9095H101.216V58.7134H102.128V59.9095ZM101.507 59.6234H101.837V59.0069H101.507V59.6234Z" fill="white"/>
<path d="M36.1884 49.7772H0V50.2128H36.1884V49.7772Z" fill="white"/>
<path d="M105 49.7772H68.8115V50.2128H105V49.7772Z" fill="white"/>
<path d="M95.0941 42.399C94.031 41.386 93.1891 40.1657 92.6208 38.8142C91.9604 37.2886 91.3853 35.7276 90.8984 34.1385C90.3985 32.4992 89.696 30.9279 88.8071 29.4609C87.9225 28.0193 86.7237 26.7942 85.2993 25.8761C83.8371 24.9212 81.8126 24.4431 79.2256 24.4419L79.1626 24.3791C80.7925 24.2324 82.3932 23.8551 83.9162 23.2586C85.3171 22.7162 86.5948 21.9003 87.6743 20.8589C88.7303 19.8218 89.5619 18.5805 90.1179 17.2114C90.7236 15.6843 91.0215 14.0535 90.9949 12.412C91.0158 10.7338 90.6961 9.06869 90.0549 7.51656C89.4549 6.07968 88.5586 4.78421 87.424 3.71395C86.2743 2.63889 84.9229 1.80021 83.4472 1.24594C81.8765 0.654416 80.2096 0.357147 78.5303 0.369128L57.441 0.310059L55.6908 0.738314L57.4873 0.677398C57.7427 0.671585 57.9966 0.717697 58.2334 0.812915C58.4703 0.908133 58.6851 1.05045 58.8649 1.23118C59.0464 1.41046 59.1894 1.6247 59.285 1.86083C59.3807 2.09696 59.4269 2.35001 59.4211 2.60455V41.836C59.4235 42.0907 59.375 42.3433 59.2784 42.5791C59.1818 42.8149 59.039 43.0292 58.8583 43.2094C58.6776 43.3897 58.4626 43.5323 58.226 43.629C57.9893 43.7256 57.7357 43.7744 57.4799 43.7724H55.1086V44.1416H73.2075V43.7724H70.8232C70.5677 43.7746 70.3143 43.7261 70.0778 43.6298C69.8412 43.5335 69.6264 43.3912 69.4457 43.2113C69.265 43.0314 69.1221 42.8174 69.0253 42.5819C68.9285 42.3465 68.8799 42.0941 68.8821 41.8397V24.5046H70.953C72.7897 24.5046 74.1672 24.9932 75.0856 25.9703C76.0497 27.0255 76.7849 28.2671 77.2455 29.6178C77.79 31.1555 78.2292 32.7281 78.56 34.325C78.8933 35.9423 79.3973 37.5201 80.0636 39.0321C80.6759 40.4417 81.6089 41.6904 82.789 42.6796C83.957 43.6567 85.6479 44.1453 87.8616 44.1453H99.4473V43.8333C97.5686 43.8333 96.1175 43.3552 95.0941 42.399ZM63.2848 42.4175H62.28V3.58658H63.2848V42.4175ZM66.2012 42.4175H65.1963V3.58658H66.2012V42.4175ZM66.5349 2.27966H62.2707V1.28286H66.5349V2.27966ZM76.0552 23.098C75.0318 23.7859 73.9985 24.1299 72.9553 24.1299H68.9488V0.810305L72.9572 0.738314C74.0004 0.738314 75.0337 1.08227 76.0571 1.77019C77.1243 2.50388 78.0474 3.42607 78.7806 4.49108C79.5932 5.65586 80.2361 6.92925 80.6903 8.27339C81.1601 9.60977 81.4038 11.0145 81.4115 12.4304C81.4038 13.8469 81.1601 15.2523 80.6903 16.5893C80.2362 17.9335 79.5932 19.2069 78.7806 20.3716C78.0487 21.4393 77.1255 22.3635 76.0571 23.098H76.0552Z" fill="white"/>
<path d="M13.6474 6.28723C14.5904 4.43392 15.8147 2.98302 17.3202 1.93453C18.8256 0.886045 20.6629 0.364263 22.8321 0.369185C24.3799 0.344756 25.9254 0.494613 27.4393 0.8159C28.7185 1.10622 29.9136 1.68537 30.9323 2.50861C31.9557 3.33559 32.9192 4.48437 33.8227 5.95496C34.9026 7.773 35.8583 9.66134 36.6834 11.6072H37.045V3.92998C35.5185 2.76089 33.5316 1.81393 31.0843 1.0891C28.637 0.364263 25.8863 0.00123062 22.8321 0C19.7001 0 16.8393 0.513783 14.2499 1.54135C11.7543 2.50894 9.4809 3.96876 7.56621 5.83313C5.66563 7.71852 4.18768 9.98333 3.22968 12.4785C2.70913 13.8085 2.32283 15.1868 2.07648 16.593H6.23874V17.9055H1.88552C1.82001 18.442 1.77243 18.9878 1.74276 19.5428H10.0116V21.0066H1.69641C1.69641 21.038 1.69641 21.0694 1.69641 21.1008C1.69641 21.6066 1.71495 22.1013 1.74091 22.5923L3.91752 22.644H9.3683V24.1078H1.86513C1.92816 24.6616 2.00603 25.2154 2.10429 25.7451H7.27883V27.209H2.42875C2.64271 28.0616 2.91022 28.9001 3.22968 29.7194C4.18703 32.2149 5.66506 34.4798 7.56621 36.3648C9.48044 38.2301 11.754 39.6907 14.2499 40.6584C16.8455 41.6859 19.7063 42.1997 22.8321 42.1997C25.8826 42.1997 28.6327 41.8373 31.0825 41.1125C33.5322 40.3876 35.5191 39.4401 37.0431 38.2698V30.5907H36.6816V30.827C35.857 32.7731 34.9012 34.6614 33.8208 36.4792C32.9173 37.9559 31.9539 39.1047 30.9304 39.9255C29.9132 40.751 28.7186 41.3321 27.4393 41.6238C25.9257 41.9476 24.3801 42.0999 22.8321 42.0779C20.6642 42.0779 18.8275 41.5537 17.322 40.5052C15.8166 39.4567 14.5917 38.0058 13.6474 36.1525C12.7068 34.2992 12.0146 32.0933 11.5709 29.5348C11.1141 26.7896 10.8926 24.0107 10.909 21.2282C10.8927 18.4456 11.1142 15.6667 11.5709 12.9215C12.0146 10.3532 12.7068 8.14177 13.6474 6.28723Z" fill="white"/>
<path d="M38.6765 17.0342C40.3006 17.0342 41.3704 18.2783 41.3704 20.4805C41.3704 22.6827 40.3062 23.8789 38.988 24.0782L39.915 26.4558L45.2916 17.0415H46.0554L40.2079 2.03046C40.148 1.87912 40.1274 1.71517 40.1482 1.55381C40.1689 1.39245 40.2303 1.23893 40.3266 1.1075C40.4147 0.968123 40.5378 0.854092 40.6839 0.776708C40.8299 0.699324 40.9937 0.661271 41.159 0.666322H43.4858V0.310059H25.8912V0.666322H26.4882C27.4905 0.656304 28.4711 0.957631 29.2933 1.52837C30.115 2.08593 30.7407 2.88573 31.0825 3.81547L36.6445 18.0642C36.8782 17.7457 37.184 17.4866 37.537 17.3076C37.89 17.1287 38.2804 17.035 38.6765 17.0342Z" fill="white"/>
<path d="M40.1207 20.5506C40.1207 19.1477 39.711 17.9774 38.6227 17.9774C37.8811 17.9774 37.4157 18.6235 37.2229 19.5575L38.6357 23.1774C39.6609 23.1682 40.1207 22.0717 40.1207 20.5506Z" fill="white"/>
<path d="M44.6686 25.363C44.6501 26.8397 45.2249 27.9473 46.1852 27.9473C47.2198 27.9473 47.6833 26.8397 47.6833 25.3187C47.6833 23.9158 47.2717 22.7455 46.1852 22.7455C45.2045 22.7529 44.6686 23.9066 44.6686 25.363Z" fill="white"/>
<path d="M57.5875 21.7209L52.7355 34.1662L48.7605 23.9693C48.8635 24.3923 48.9146 24.8262 48.9125 25.2614C48.9125 27.6943 47.6296 28.9016 46.1482 28.9016C44.7039 28.9016 43.4562 27.7479 43.4377 25.4386C43.4191 23.1294 44.7039 21.8169 46.2391 21.8169C46.6804 21.8042 47.1165 21.9138 47.4989 22.1334C47.8813 22.3531 48.1948 22.6743 48.4045 23.0611L46.1519 17.2833L40.3192 27.4987L45.935 41.8969H50.1102L57.7895 22.1972L57.5875 21.7209Z" fill="white"/>
</svg>
